<?xml version="1.0" encoding="UTF-8" standalone="no"?>
<!DOCTYPE svg PUBLIC "-//W3C//DTD SVG 1.1//EN"
 "http://www.w3.org/Graphics/SVG/1.1/DTD/svg11.dtd">
<!-- Generated by graphviz version 12.1.2 (20240928.0832)
 -->
<!-- Title: public.story_start_settings Pages: 1 -->
<svg width="1018pt" height="1345pt"
 viewBox="0.00 0.00 1017.91 1345.20" xmlns="http://www.w3.org/2000/svg" xmlns:xlink="http://www.w3.org/1999/xlink">
<g id="graph0" class="graph" transform="scale(1 1) rotate(0) translate(4 1341.2)">
<title>public.story_start_settings</title>
<polygon fill="white" stroke="none" points="-4,4 -4,-1341.2 1013.91,-1341.2 1013.91,4 -4,4"/>
<!-- public.story_start_settings -->
<g id="node1" class="node">
<title>public.story_start_settings</title>
<polygon fill="#efefef" stroke="none" points="325.76,-727.8 325.76,-763.4 653.73,-763.4 653.73,-727.8 325.76,-727.8"/>
<polygon fill="none" stroke="black" points="325.76,-727.8 325.76,-763.4 653.73,-763.4 653.73,-727.8 325.76,-727.8"/>
<text text-anchor="start" x="332.76" y="-741.2" font-family="Arial Bold" font-size="18.00">public.story_start_settings</text>
<text text-anchor="start" x="522.24" y="-741.2" font-family="Arial" font-size="14.00">    </text>
<text text-anchor="start" x="553.36" y="-741.2" font-family="Arial" font-size="14.00" fill="#666666">[BASE TABLE]</text>
<polygon fill="none" stroke="black" points="325.76,-697 325.76,-727.8 653.73,-727.8 653.73,-697 325.76,-697"/>
<text text-anchor="start" x="332.76" y="-709.2" font-family="Arial" font-size="14.00">id </text>
<text text-anchor="start" x="347.54" y="-709.2" font-family="Arial" font-size="14.00" fill="#666666">[bigint]</text>
<polygon fill="none" stroke="black" points="325.76,-666.2 325.76,-697 653.73,-697 653.73,-666.2 325.76,-666.2"/>
<text text-anchor="start" x="332.76" y="-678.4" font-family="Arial" font-size="14.00">story_id </text>
<text text-anchor="start" x="385.67" y="-678.4" font-family="Arial" font-size="14.00" fill="#666666">[bigint]</text>
<polygon fill="none" stroke="black" points="325.76,-635.4 325.76,-666.2 653.73,-666.2 653.73,-635.4 325.76,-635.4"/>
<text text-anchor="start" x="332.76" y="-647.6" font-family="Arial" font-size="14.00">name </text>
<text text-anchor="start" x="371.67" y="-647.6" font-family="Arial" font-size="14.00" fill="#666666">[varchar(100)]</text>
<polygon fill="none" stroke="black" points="325.76,-604.6 325.76,-635.4 653.73,-635.4 653.73,-604.6 325.76,-604.6"/>
<text text-anchor="start" x="332.76" y="-616.8" font-family="Arial" font-size="14.00">prologue </text>
<text text-anchor="start" x="391.13" y="-616.8" font-family="Arial" font-size="14.00" fill="#666666">[text]</text>
<polygon fill="none" stroke="black" points="325.76,-573.8 325.76,-604.6 653.73,-604.6 653.73,-573.8 325.76,-573.8"/>
<text text-anchor="start" x="332.76" y="-586" font-family="Arial" font-size="14.00">start_situation </text>
<text text-anchor="start" x="423.8" y="-586" font-family="Arial" font-size="14.00" fill="#666666">[text]</text>
<polygon fill="none" stroke="black" points="325.76,-543 325.76,-573.8 653.73,-573.8 653.73,-543 325.76,-543"/>
<text text-anchor="start" x="332.76" y="-555.2" font-family="Arial" font-size="14.00">created_at </text>
<text text-anchor="start" x="402.8" y="-555.2" font-family="Arial" font-size="14.00" fill="#666666">[timestamp with time zone]</text>
<polygon fill="none" stroke="black" points="325.76,-512.2 325.76,-543 653.73,-543 653.73,-512.2 325.76,-512.2"/>
<text text-anchor="start" x="332.76" y="-524.4" font-family="Arial" font-size="14.00">updated_at </text>
<text text-anchor="start" x="406.71" y="-524.4" font-family="Arial" font-size="14.00" fill="#666666">[timestamp with time zone]</text>
<polygon fill="none" stroke="black" stroke-width="3" points="324.26,-510.7 324.26,-764.9 655.23,-764.9 655.23,-510.7 324.26,-510.7"/>
</g>
<!-- public.stories -->
<g id="node4" class="node">
<title>public.stories</title>
<polygon fill="#efefef" stroke="none" points="362.9,-351.2 362.9,-386.8 616.58,-386.8 616.58,-351.2 362.9,-351.2"/>
<polygon fill="none" stroke="black" points="362.9,-351.2 362.9,-386.8 616.58,-386.8 616.58,-351.2 362.9,-351.2"/>
<text text-anchor="start" x="379.25" y="-364.6" font-family="Arial Bold" font-size="18.00">public.stories</text>
<text text-anchor="start" x="475.74" y="-364.6" font-family="Arial" font-size="14.00">    </text>
<text text-anchor="start" x="506.86" y="-364.6" font-family="Arial" font-size="14.00" fill="#666666">[BASE TABLE]</text>
<polygon fill="none" stroke="black" points="362.9,-320.4 362.9,-351.2 616.58,-351.2 616.58,-320.4 362.9,-320.4"/>
<text text-anchor="start" x="369.9" y="-332.6" font-family="Arial" font-size="14.00">id </text>
<text text-anchor="start" x="384.69" y="-332.6" font-family="Arial" font-size="14.00" fill="#666666">[bigint]</text>
<polygon fill="none" stroke="black" points="362.9,-289.6 362.9,-320.4 616.58,-320.4 616.58,-289.6 362.9,-289.6"/>
<text text-anchor="start" x="369.9" y="-301.8" font-family="Arial" font-size="14.00">user_id </text>
<text text-anchor="start" x="419.71" y="-301.8" font-family="Arial" font-size="14.00" fill="#666666">[bigint]</text>
<polygon fill="none" stroke="black" points="362.9,-258.8 362.9,-289.6 616.58,-289.6 616.58,-258.8 362.9,-258.8"/>
<text text-anchor="start" x="369.9" y="-271" font-family="Arial" font-size="14.00">title </text>
<text text-anchor="start" x="395.58" y="-271" font-family="Arial" font-size="14.00" fill="#666666">[varchar(100)]</text>
<polygon fill="none" stroke="black" points="362.9,-228 362.9,-258.8 616.58,-258.8 616.58,-228 362.9,-228"/>
<text text-anchor="start" x="369.9" y="-240.2" font-family="Arial" font-size="14.00">one_line_intro </text>
<text text-anchor="start" x="461.75" y="-240.2" font-family="Arial" font-size="14.00" fill="#666666">[varchar(255)]</text>
<polygon fill="none" stroke="black" points="362.9,-197.2 362.9,-228 616.58,-228 616.58,-197.2 362.9,-197.2"/>
<text text-anchor="start" x="369.9" y="-209.4" font-family="Arial" font-size="14.00">description </text>
<text text-anchor="start" x="441.49" y="-209.4" font-family="Arial" font-size="14.00" fill="#666666">[text]</text>
<polygon fill="none" stroke="black" points="362.9,-166.4 362.9,-197.2 616.58,-197.2 616.58,-166.4 362.9,-166.4"/>
<text text-anchor="start" x="369.9" y="-178.6" font-family="Arial" font-size="14.00">genre </text>
<text text-anchor="start" x="409.6" y="-178.6" font-family="Arial" font-size="14.00" fill="#666666">[varchar(255)]</text>
<polygon fill="none" stroke="black" points="362.9,-135.6 362.9,-166.4 616.58,-166.4 616.58,-135.6 362.9,-135.6"/>
<text text-anchor="start" x="369.9" y="-147.8" font-family="Arial" font-size="14.00">created_at </text>
<text text-anchor="start" x="439.95" y="-147.8" font-family="Arial" font-size="14.00" fill="#666666">[timestamp with time zone]</text>
<polygon fill="none" stroke="black" points="362.9,-104.8 362.9,-135.6 616.58,-135.6 616.58,-104.8 362.9,-104.8"/>
<text text-anchor="start" x="369.9" y="-117" font-family="Arial" font-size="14.00">updated_at </text>
<text text-anchor="start" x="443.86" y="-117" font-family="Arial" font-size="14.00" fill="#666666">[timestamp with time zone]</text>
<polygon fill="none" stroke="black" points="362.9,-74 362.9,-104.8 616.58,-104.8 616.58,-74 362.9,-74"/>
<text text-anchor="start" x="369.9" y="-86.2" font-family="Arial" font-size="14.00">deleted_at </text>
<text text-anchor="start" x="439.18" y="-86.2" font-family="Arial" font-size="14.00" fill="#666666">[timestamp with time zone]</text>
<polygon fill="none" stroke="black" points="362.9,-43.2 362.9,-74 616.58,-74 616.58,-43.2 362.9,-43.2"/>
<text text-anchor="start" x="369.9" y="-55.4" font-family="Arial" font-size="14.00">public_id </text>
<text text-anchor="start" x="429.05" y="-55.4" font-family="Arial" font-size="14.00" fill="#666666">[uuid]</text>
</g>
<!-- public.story_start_settings&#45;&gt;public.stories -->
<g id="edge3" class="edge">
<title>public.story_start_settings:story_id&#45;&gt;public.stories:id</title>
<path fill="none" stroke="black" d="M664.85,-681.08C807.57,-666.24 768.68,-335.8 617.58,-335.8"/>
<polygon fill="black" stroke="black" points="665.05,-681.07 654.83,-677.09 659.72,-681.35 655.4,-681.57 655.4,-681.57 655.4,-681.57 659.72,-681.35 655.29,-686.08 665.05,-681.07"/>
<text text-anchor="start" x="661.73" y="-691.6" font-family="Arial" font-size="10.00">FOREIGN KEY (story_id) REFERENCES stories(id) ON DELETE CASCADE</text>
</g>
<!-- public.story_suggested_inputs -->
<g id="node2" class="node">
<title>public.story_suggested_inputs</title>
<polygon fill="#efefef" stroke="none" points="87.25,-1150.6 87.25,-1186.2 444.23,-1186.2 444.23,-1150.6 87.25,-1150.6"/>
<polygon fill="none" stroke="black" points="87.25,-1150.6 87.25,-1186.2 444.23,-1186.2 444.23,-1150.6 87.25,-1150.6"/>
<text text-anchor="start" x="94.25" y="-1164" font-family="Arial Bold" font-size="18.00">public.story_suggested_inputs</text>
<text text-anchor="start" x="312.74" y="-1164" font-family="Arial" font-size="14.00">    </text>
<text text-anchor="start" x="343.86" y="-1164" font-family="Arial" font-size="14.00" fill="#666666">[BASE TABLE]</text>
<polygon fill="none" stroke="black" points="87.25,-1119.8 87.25,-1150.6 444.23,-1150.6 444.23,-1119.8 87.25,-1119.8"/>
<text text-anchor="start" x="94.25" y="-1132" font-family="Arial" font-size="14.00">id </text>
<text text-anchor="start" x="109.04" y="-1132" font-family="Arial" font-size="14.00" fill="#666666">[bigint]</text>
<polygon fill="none" stroke="black" points="87.25,-1089 87.25,-1119.8 444.23,-1119.8 444.23,-1089 87.25,-1089"/>
<text text-anchor="start" x="94.25" y="-1101.2" font-family="Arial" font-size="14.00">start_setting_id </text>
<text text-anchor="start" x="193.09" y="-1101.2" font-family="Arial" font-size="14.00" fill="#666666">[bigint]</text>
<polygon fill="none" stroke="black" points="87.25,-1058.2 87.25,-1089 444.23,-1089 444.23,-1058.2 87.25,-1058.2"/>
<text text-anchor="start" x="94.25" y="-1070.4" font-family="Arial" font-size="14.00">input_text </text>
<text text-anchor="start" x="158.85" y="-1070.4" font-family="Arial" font-size="14.00" fill="#666666">[text]</text>
<polygon fill="none" stroke="black" points="87.25,-1027.4 87.25,-1058.2 444.23,-1058.2 444.23,-1027.4 87.25,-1027.4"/>
<text text-anchor="start" x="94.25" y="-1039.6" font-family="Arial" font-size="14.00">input_order </text>
<text text-anchor="start" x="168.97" y="-1039.6" font-family="Arial" font-size="14.00" fill="#666666">[smallint]</text>
<polygon fill="none" stroke="black" points="87.25,-996.6 87.25,-1027.4 444.23,-1027.4 444.23,-996.6 87.25,-996.6"/>
<text text-anchor="start" x="94.25" y="-1008.8" font-family="Arial" font-size="14.00">created_at </text>
<text text-anchor="start" x="164.3" y="-1008.8" font-family="Arial" font-size="14.00" fill="#666666">[timestamp with time zone]</text>
</g>
<!-- public.story_suggested_inputs&#45;&gt;public.story_start_settings -->
<g id="edge1" class="edge">
<title>public.story_suggested_inputs:start_setting_id&#45;&gt;public.story_start_settings:id</title>
<path fill="none" stroke="black" d="M455.58,-1103.57C507.29,-1094.52 465.81,-1012.92 444.23,-953.4 416,-875.55 354.13,-887.4 325.76,-809.6 310.95,-769.01 281.55,-712.4 324.76,-712.4"/>
<polygon fill="black" stroke="black" points="455.53,-1103.58 445.21,-1099.89 450.21,-1104 445.9,-1104.35 445.9,-1104.35 445.9,-1104.35 450.21,-1104 445.92,-1108.86 455.53,-1103.58"/>
<text text-anchor="start" x="7" y="-1114.4" font-family="Arial" font-size="10.00">FOREIGN KEY (start_setting_id) REFERENCES story_start_settings(id) ON DELETE CASCADE</text>
</g>
<!-- public.story_play_sessions -->
<g id="node3" class="node">
<title>public.story_play_sessions</title>
<polygon fill="#efefef" stroke="none" points="548.75,-1258.4 548.75,-1294 880.73,-1294 880.73,-1258.4 548.75,-1258.4"/>
<polygon fill="none" stroke="black" points="548.75,-1258.4 548.75,-1294 880.73,-1294 880.73,-1258.4 548.75,-1258.4"/>
<text text-anchor="start" x="555.75" y="-1271.8" font-family="Arial Bold" font-size="18.00">public.story_play_sessions</text>
<text text-anchor="start" x="749.24" y="-1271.8" font-family="Arial" font-size="14.00">    </text>
<text text-anchor="start" x="780.36" y="-1271.8" font-family="Arial" font-size="14.00" fill="#666666">[BASE TABLE]</text>
<polygon fill="none" stroke="black" points="548.75,-1227.6 548.75,-1258.4 880.73,-1258.4 880.73,-1227.6 548.75,-1227.6"/>
<text text-anchor="start" x="555.75" y="-1239.8" font-family="Arial" font-size="14.00">id </text>
<text text-anchor="start" x="570.54" y="-1239.8" font-family="Arial" font-size="14.00" fill="#666666">[bigint]</text>
<polygon fill="none" stroke="black" points="548.75,-1196.8 548.75,-1227.6 880.73,-1227.6 880.73,-1196.8 548.75,-1196.8"/>
<text text-anchor="start" x="555.75" y="-1209" font-family="Arial" font-size="14.00">user_id </text>
<text text-anchor="start" x="605.56" y="-1209" font-family="Arial" font-size="14.00" fill="#666666">[bigint]</text>
<polygon fill="none" stroke="black" points="548.75,-1166 548.75,-1196.8 880.73,-1196.8 880.73,-1166 548.75,-1166"/>
<text text-anchor="start" x="555.75" y="-1178.2" font-family="Arial" font-size="14.00">story_id </text>
<text text-anchor="start" x="608.66" y="-1178.2" font-family="Arial" font-size="14.00" fill="#666666">[bigint]</text>
<polygon fill="none" stroke="black" points="548.75,-1135.2 548.75,-1166 880.73,-1166 880.73,-1135.2 548.75,-1135.2"/>
<text text-anchor="start" x="555.75" y="-1147.4" font-family="Arial" font-size="14.00">start_setting_id </text>
<text text-anchor="start" x="654.59" y="-1147.4" font-family="Arial" font-size="14.00" fill="#666666">[bigint]</text>
<polygon fill="none" stroke="black" points="548.75,-1104.4 548.75,-1135.2 880.73,-1135.2 880.73,-1104.4 548.75,-1104.4"/>
<text text-anchor="start" x="555.75" y="-1116.6" font-family="Arial" font-size="14.00">title </text>
<text text-anchor="start" x="581.43" y="-1116.6" font-family="Arial" font-size="14.00" fill="#666666">[varchar(100)]</text>
<polygon fill="none" stroke="black" points="548.75,-1073.6 548.75,-1104.4 880.73,-1104.4 880.73,-1073.6 548.75,-1073.6"/>
<text text-anchor="start" x="555.75" y="-1085.8" font-family="Arial" font-size="14.00">summary </text>
<text text-anchor="start" x="617.2" y="-1085.8" font-family="Arial" font-size="14.00" fill="#666666">[text]</text>
<polygon fill="none" stroke="black" points="548.75,-1042.8 548.75,-1073.6 880.73,-1073.6 880.73,-1042.8 548.75,-1042.8"/>
<text text-anchor="start" x="555.75" y="-1055" font-family="Arial" font-size="14.00">current_turn </text>
<text text-anchor="start" x="635.12" y="-1055" font-family="Arial" font-size="14.00" fill="#666666">[integer]</text>
<polygon fill="none" stroke="black" points="548.75,-1012 548.75,-1042.8 880.73,-1042.8 880.73,-1012 548.75,-1012"/>
<text text-anchor="start" x="555.75" y="-1024.2" font-family="Arial" font-size="14.00">status </text>
<text text-anchor="start" x="596.99" y="-1024.2" font-family="Arial" font-size="14.00" fill="#666666">[varchar(20)]</text>
<polygon fill="none" stroke="black" points="548.75,-981.2 548.75,-1012 880.73,-1012 880.73,-981.2 548.75,-981.2"/>
<text text-anchor="start" x="555.75" y="-993.4" font-family="Arial" font-size="14.00">created_at </text>
<text text-anchor="start" x="625.8" y="-993.4" font-family="Arial" font-size="14.00" fill="#666666">[timestamp with time zone]</text>
<polygon fill="none" stroke="black" points="548.75,-950.4 548.75,-981.2 880.73,-981.2 880.73,-950.4 548.75,-950.4"/>
<text text-anchor="start" x="555.75" y="-962.6" font-family="Arial" font-size="14.00">updated_at </text>
<text text-anchor="start" x="629.71" y="-962.6" font-family="Arial" font-size="14.00" fill="#666666">[timestamp with time zone]</text>
<polygon fill="none" stroke="black" points="548.75,-919.6 548.75,-950.4 880.73,-950.4 880.73,-919.6 548.75,-919.6"/>
<text text-anchor="start" x="555.75" y="-931.8" font-family="Arial" font-size="14.00">deleted_at </text>
<text text-anchor="start" x="625.03" y="-931.8" font-family="Arial" font-size="14.00" fill="#666666">[timestamp with time zone]</text>
<polygon fill="none" stroke="black" points="548.75,-888.8 548.75,-919.6 880.73,-919.6 880.73,-888.8 548.75,-888.8"/>
<text text-anchor="start" x="555.75" y="-901" font-family="Arial" font-size="14.00">public_id </text>
<text text-anchor="start" x="614.9" y="-901" font-family="Arial" font-size="14.00" fill="#666666">[uuid]</text>
</g>
<!-- public.story_play_sessions&#45;&gt;public.story_start_settings -->
<g id="edge2" class="edge">
<title>public.story_play_sessions:start_setting_id&#45;&gt;public.story_start_settings:id</title>
<path fill="none" stroke="black" d="M537.83,-1148.58C483.09,-1124.78 511.35,-897.78 548.75,-845.6 577.49,-805.51 624.86,-849.59 653.73,-809.6 679.02,-774.57 697.93,-712.4 654.73,-712.4"/>
<polygon fill="black" stroke="black" points="537.63,-1148.54 546.53,-1154.94 542.85,-1149.6 547.1,-1150.47 547.1,-1150.47 547.1,-1150.47 542.85,-1149.6 548.32,-1146.12 537.63,-1148.54"/>
<text text-anchor="start" x="554.75" y="-1160.6" font-family="Arial" font-size="10.00">FOREIGN KEY (start_setting_id) REFERENCES story_start_settings(id) ON DELETE SET NULL</text>
</g>
</g>
</svg>
