<?xml version="1.0" encoding="UTF-8" standalone="no"?>
<!DOCTYPE svg PUBLIC "-//W3C//DTD SVG 1.1//EN"
 "http://www.w3.org/Graphics/SVG/1.1/DTD/svg11.dtd">
<!-- Generated by graphviz version 12.1.2 (20240928.0832)
 -->
<!-- Title: public.story_settings Pages: 1 -->
<svg width="698pt" height="848pt"
 viewBox="0.00 0.00 698.36 848.40" xmlns="http://www.w3.org/2000/svg" xmlns:xlink="http://www.w3.org/1999/xlink">
<g id="graph0" class="graph" transform="scale(1 1) rotate(0) translate(4 844.4)">
<title>public.story_settings</title>
<polygon fill="white" stroke="none" points="-4,4 -4,-844.4 694.36,-844.4 694.36,4 -4,4"/>
<!-- public.story_settings -->
<g id="node1" class="node">
<title>public.story_settings</title>
<polygon fill="#efefef" stroke="none" points="46.2,-758.6 46.2,-794.2 334.18,-794.2 334.18,-758.6 46.2,-758.6"/>
<polygon fill="none" stroke="black" points="46.2,-758.6 46.2,-794.2 334.18,-794.2 334.18,-758.6 46.2,-758.6"/>
<text text-anchor="start" x="53.2" y="-772" font-family="Arial Bold" font-size="18.00">public.story_settings</text>
<text text-anchor="start" x="202.69" y="-772" font-family="Arial" font-size="14.00">    </text>
<text text-anchor="start" x="233.81" y="-772" font-family="Arial" font-size="14.00" fill="#666666">[BASE TABLE]</text>
<polygon fill="none" stroke="black" points="46.2,-727.8 46.2,-758.6 334.18,-758.6 334.18,-727.8 46.2,-727.8"/>
<text text-anchor="start" x="53.2" y="-740" font-family="Arial" font-size="14.00">id </text>
<text text-anchor="start" x="67.99" y="-740" font-family="Arial" font-size="14.00" fill="#666666">[bigint]</text>
<polygon fill="none" stroke="black" points="46.2,-697 46.2,-727.8 334.18,-727.8 334.18,-697 46.2,-697"/>
<text text-anchor="start" x="53.2" y="-709.2" font-family="Arial" font-size="14.00">story_id </text>
<text text-anchor="start" x="106.11" y="-709.2" font-family="Arial" font-size="14.00" fill="#666666">[bigint]</text>
<polygon fill="none" stroke="black" points="46.2,-666.2 46.2,-697 334.18,-697 334.18,-666.2 46.2,-666.2"/>
<text text-anchor="start" x="53.2" y="-678.4" font-family="Arial" font-size="14.00">world_setting </text>
<text text-anchor="start" x="139.58" y="-678.4" font-family="Arial" font-size="14.00" fill="#666666">[text]</text>
<polygon fill="none" stroke="black" points="46.2,-635.4 46.2,-666.2 334.18,-666.2 334.18,-635.4 46.2,-635.4"/>
<text text-anchor="start" x="53.2" y="-647.6" font-family="Arial" font-size="14.00">character_setting </text>
<text text-anchor="start" x="164.48" y="-647.6" font-family="Arial" font-size="14.00" fill="#666666">[text]</text>
<polygon fill="none" stroke="black" points="46.2,-604.6 46.2,-635.4 334.18,-635.4 334.18,-604.6 46.2,-604.6"/>
<text text-anchor="start" x="53.2" y="-616.8" font-family="Arial" font-size="14.00">user_role_setting </text>
<text text-anchor="start" x="164.49" y="-616.8" font-family="Arial" font-size="14.00" fill="#666666">[text]</text>
<polygon fill="none" stroke="black" points="46.2,-573.8 46.2,-604.6 334.18,-604.6 334.18,-573.8 46.2,-573.8"/>
<text text-anchor="start" x="53.2" y="-586" font-family="Arial" font-size="14.00">rule_setting </text>
<text text-anchor="start" x="129.47" y="-586" font-family="Arial" font-size="14.00" fill="#666666">[text]</text>
<polygon fill="none" stroke="black" points="46.2,-543 46.2,-573.8 334.18,-573.8 334.18,-543 46.2,-543"/>
<text text-anchor="start" x="53.2" y="-555.2" font-family="Arial" font-size="14.00">created_at </text>
<text text-anchor="start" x="123.25" y="-555.2" font-family="Arial" font-size="14.00" fill="#666666">[timestamp with time zone]</text>
<polygon fill="none" stroke="black" points="46.2,-512.2 46.2,-543 334.18,-543 334.18,-512.2 46.2,-512.2"/>
<text text-anchor="start" x="53.2" y="-524.4" font-family="Arial" font-size="14.00">updated_at </text>
<text text-anchor="start" x="127.16" y="-524.4" font-family="Arial" font-size="14.00" fill="#666666">[timestamp with time zone]</text>
<polygon fill="none" stroke="black" stroke-width="3" points="44.7,-510.7 44.7,-795.7 335.68,-795.7 335.68,-510.7 44.7,-510.7"/>
</g>
<!-- public.stories -->
<g id="node2" class="node">
<title>public.stories</title>
<polygon fill="#efefef" stroke="none" points="63.35,-351.2 63.35,-386.8 317.03,-386.8 317.03,-351.2 63.35,-351.2"/>
<polygon fill="none" stroke="black" points="63.35,-351.2 63.35,-386.8 317.03,-386.8 317.03,-351.2 63.35,-351.2"/>
<text text-anchor="start" x="79.7" y="-364.6" font-family="Arial Bold" font-size="18.00">public.stories</text>
<text text-anchor="start" x="176.19" y="-364.6" font-family="Arial" font-size="14.00">    </text>
<text text-anchor="start" x="207.31" y="-364.6" font-family="Arial" font-size="14.00" fill="#666666">[BASE TABLE]</text>
<polygon fill="none" stroke="black" points="63.35,-320.4 63.35,-351.2 317.03,-351.2 317.03,-320.4 63.35,-320.4"/>
<text text-anchor="start" x="70.35" y="-332.6" font-family="Arial" font-size="14.00">id </text>
<text text-anchor="start" x="85.14" y="-332.6" font-family="Arial" font-size="14.00" fill="#666666">[bigint]</text>
<polygon fill="none" stroke="black" points="63.35,-289.6 63.35,-320.4 317.03,-320.4 317.03,-289.6 63.35,-289.6"/>
<text text-anchor="start" x="70.35" y="-301.8" font-family="Arial" font-size="14.00">user_id </text>
<text text-anchor="start" x="120.16" y="-301.8" font-family="Arial" font-size="14.00" fill="#666666">[bigint]</text>
<polygon fill="none" stroke="black" points="63.35,-258.8 63.35,-289.6 317.03,-289.6 317.03,-258.8 63.35,-258.8"/>
<text text-anchor="start" x="70.35" y="-271" font-family="Arial" font-size="14.00">title </text>
<text text-anchor="start" x="96.03" y="-271" font-family="Arial" font-size="14.00" fill="#666666">[varchar(100)]</text>
<polygon fill="none" stroke="black" points="63.35,-228 63.35,-258.8 317.03,-258.8 317.03,-228 63.35,-228"/>
<text text-anchor="start" x="70.35" y="-240.2" font-family="Arial" font-size="14.00">one_line_intro </text>
<text text-anchor="start" x="162.2" y="-240.2" font-family="Arial" font-size="14.00" fill="#666666">[varchar(255)]</text>
<polygon fill="none" stroke="black" points="63.35,-197.2 63.35,-228 317.03,-228 317.03,-197.2 63.35,-197.2"/>
<text text-anchor="start" x="70.35" y="-209.4" font-family="Arial" font-size="14.00">description </text>
<text text-anchor="start" x="141.94" y="-209.4" font-family="Arial" font-size="14.00" fill="#666666">[text]</text>
<polygon fill="none" stroke="black" points="63.35,-166.4 63.35,-197.2 317.03,-197.2 317.03,-166.4 63.35,-166.4"/>
<text text-anchor="start" x="70.35" y="-178.6" font-family="Arial" font-size="14.00">genre </text>
<text text-anchor="start" x="110.05" y="-178.6" font-family="Arial" font-size="14.00" fill="#666666">[varchar(255)]</text>
<polygon fill="none" stroke="black" points="63.35,-135.6 63.35,-166.4 317.03,-166.4 317.03,-135.6 63.35,-135.6"/>
<text text-anchor="start" x="70.35" y="-147.8" font-family="Arial" font-size="14.00">created_at </text>
<text text-anchor="start" x="140.4" y="-147.8" font-family="Arial" font-size="14.00" fill="#666666">[timestamp with time zone]</text>
<polygon fill="none" stroke="black" points="63.35,-104.8 63.35,-135.6 317.03,-135.6 317.03,-104.8 63.35,-104.8"/>
<text text-anchor="start" x="70.35" y="-117" font-family="Arial" font-size="14.00">updated_at </text>
<text text-anchor="start" x="144.31" y="-117" font-family="Arial" font-size="14.00" fill="#666666">[timestamp with time zone]</text>
<polygon fill="none" stroke="black" points="63.35,-74 63.35,-104.8 317.03,-104.8 317.03,-74 63.35,-74"/>
<text text-anchor="start" x="70.35" y="-86.2" font-family="Arial" font-size="14.00">deleted_at </text>
<text text-anchor="start" x="139.63" y="-86.2" font-family="Arial" font-size="14.00" fill="#666666">[timestamp with time zone]</text>
<polygon fill="none" stroke="black" points="63.35,-43.2 63.35,-74 317.03,-74 317.03,-43.2 63.35,-43.2"/>
<text text-anchor="start" x="70.35" y="-55.4" font-family="Arial" font-size="14.00">public_id </text>
<text text-anchor="start" x="129.5" y="-55.4" font-family="Arial" font-size="14.00" fill="#666666">[uuid]</text>
</g>
<!-- public.story_settings&#45;&gt;public.stories -->
<g id="edge1" class="edge">
<title>public.story_settings:story_id&#45;&gt;public.stories:id</title>
<path fill="none" stroke="black" d="M345.43,-710.37C417.36,-680.73 398.21,-335.8 318.03,-335.8"/>
<polygon fill="black" stroke="black" points="345.32,-710.39 334.64,-707.92 340.09,-711.43 335.84,-712.27 335.84,-712.27 335.84,-712.27 340.09,-711.43 336.38,-716.75 345.32,-710.39"/>
<text text-anchor="start" x="342.18" y="-722.4" font-family="Arial" font-size="10.00">FOREIGN KEY (story_id) REFERENCES stories(id) ON DELETE CASCADE</text>
</g>
</g>
</svg>
