<?xml version="1.0" encoding="UTF-8" standalone="no"?>
<!DOCTYPE svg PUBLIC "-//W3C//DTD SVG 1.1//EN"
 "http://www.w3.org/Graphics/SVG/1.1/DTD/svg11.dtd">
<!-- Generated by graphviz version 12.1.2 (20240928.0832)
 -->
<!-- Title: public.story_creation_example_ratings Pages: 1 -->
<svg width="927pt" height="633pt"
 viewBox="0.00 0.00 927.12 632.80" xmlns="http://www.w3.org/2000/svg" xmlns:xlink="http://www.w3.org/1999/xlink">
<g id="graph0" class="graph" transform="scale(1 1) rotate(0) translate(4 628.8)">
<title>public.story_creation_example_ratings</title>
<polygon fill="white" stroke="none" points="-4,4 -4,-628.8 923.12,-628.8 923.12,4 -4,4"/>
<!-- public.story_creation_example_ratings -->
<g id="node1" class="node">
<title>public.story_creation_example_ratings</title>
<polygon fill="#efefef" stroke="none" points="46.2,-543 46.2,-578.6 465.1,-578.6 465.1,-543 46.2,-543"/>
<polygon fill="none" stroke="black" points="46.2,-543 46.2,-578.6 465.1,-578.6 465.1,-543 46.2,-543"/>
<text text-anchor="start" x="53.2" y="-556.4" font-family="Arial Bold" font-size="18.00">public.story_creation_example_ratings</text>
<text text-anchor="start" x="333.62" y="-556.4" font-family="Arial" font-size="14.00">    </text>
<text text-anchor="start" x="364.73" y="-556.4" font-family="Arial" font-size="14.00" fill="#666666">[BASE TABLE]</text>
<polygon fill="none" stroke="black" points="46.2,-512.2 46.2,-543 465.1,-543 465.1,-512.2 46.2,-512.2"/>
<text text-anchor="start" x="53.2" y="-524.4" font-family="Arial" font-size="14.00">id </text>
<text text-anchor="start" x="67.99" y="-524.4" font-family="Arial" font-size="14.00" fill="#666666">[bigint]</text>
<polygon fill="none" stroke="black" points="46.2,-481.4 46.2,-512.2 465.1,-512.2 465.1,-481.4 46.2,-481.4"/>
<text text-anchor="start" x="53.2" y="-493.6" font-family="Arial" font-size="14.00">example_id </text>
<text text-anchor="start" x="128.69" y="-493.6" font-family="Arial" font-size="14.00" fill="#666666">[bigint]</text>
<polygon fill="none" stroke="black" points="46.2,-450.6 46.2,-481.4 465.1,-481.4 465.1,-450.6 46.2,-450.6"/>
<text text-anchor="start" x="53.2" y="-462.8" font-family="Arial" font-size="14.00">rating </text>
<text text-anchor="start" x="92.11" y="-462.8" font-family="Arial" font-size="14.00" fill="#666666">[varchar(8)]</text>
<polygon fill="none" stroke="black" points="46.2,-419.8 46.2,-450.6 465.1,-450.6 465.1,-419.8 46.2,-419.8"/>
<text text-anchor="start" x="53.2" y="-432" font-family="Arial" font-size="14.00">created_at </text>
<text text-anchor="start" x="123.25" y="-432" font-family="Arial" font-size="14.00" fill="#666666">[timestamp with time zone]</text>
<polygon fill="none" stroke="black" points="46.2,-389 46.2,-419.8 465.1,-419.8 465.1,-389 46.2,-389"/>
<text text-anchor="start" x="53.2" y="-401.2" font-family="Arial" font-size="14.00">updated_at </text>
<text text-anchor="start" x="127.16" y="-401.2" font-family="Arial" font-size="14.00" fill="#666666">[timestamp with time zone]</text>
<polygon fill="none" stroke="black" stroke-width="3" points="44.7,-387.5 44.7,-580.1 466.6,-580.1 466.6,-387.5 44.7,-387.5"/>
</g>
<!-- public.story_creation_examples -->
<g id="node2" class="node">
<title>public.story_creation_examples</title>
<polygon fill="#efefef" stroke="none" points="71.69,-228 71.69,-263.6 439.61,-263.6 439.61,-228 71.69,-228"/>
<polygon fill="none" stroke="black" points="71.69,-228 71.69,-263.6 439.61,-263.6 439.61,-228 71.69,-228"/>
<text text-anchor="start" x="78.69" y="-241.4" font-family="Arial Bold" font-size="18.00">public.story_creation_examples</text>
<text text-anchor="start" x="308.12" y="-241.4" font-family="Arial" font-size="14.00">    </text>
<text text-anchor="start" x="339.24" y="-241.4" font-family="Arial" font-size="14.00" fill="#666666">[BASE TABLE]</text>
<polygon fill="none" stroke="black" points="71.69,-197.2 71.69,-228 439.61,-228 439.61,-197.2 71.69,-197.2"/>
<text text-anchor="start" x="78.69" y="-209.4" font-family="Arial" font-size="14.00">id </text>
<text text-anchor="start" x="93.48" y="-209.4" font-family="Arial" font-size="14.00" fill="#666666">[bigint]</text>
<polygon fill="none" stroke="black" points="71.69,-166.4 71.69,-197.2 439.61,-197.2 439.61,-166.4 71.69,-166.4"/>
<text text-anchor="start" x="78.69" y="-178.6" font-family="Arial" font-size="14.00">creation_session_id </text>
<text text-anchor="start" x="206.33" y="-178.6" font-family="Arial" font-size="14.00" fill="#666666">[bigint]</text>
<polygon fill="none" stroke="black" points="71.69,-135.6 71.69,-166.4 439.61,-166.4 439.61,-135.6 71.69,-135.6"/>
<text text-anchor="start" x="78.69" y="-147.8" font-family="Arial" font-size="14.00">example_text </text>
<text text-anchor="start" x="165.85" y="-147.8" font-family="Arial" font-size="14.00" fill="#666666">[text]</text>
<polygon fill="none" stroke="black" points="71.69,-104.8 71.69,-135.6 439.61,-135.6 439.61,-104.8 71.69,-104.8"/>
<text text-anchor="start" x="78.69" y="-117" font-family="Arial" font-size="14.00">example_order </text>
<text text-anchor="start" x="175.97" y="-117" font-family="Arial" font-size="14.00" fill="#666666">[smallint]</text>
<polygon fill="none" stroke="black" points="71.69,-74 71.69,-104.8 439.61,-104.8 439.61,-74 71.69,-74"/>
<text text-anchor="start" x="78.69" y="-86.2" font-family="Arial" font-size="14.00">is_selected </text>
<text text-anchor="start" x="152.62" y="-86.2" font-family="Arial" font-size="14.00" fill="#666666">[boolean]</text>
<polygon fill="none" stroke="black" points="71.69,-43.2 71.69,-74 439.61,-74 439.61,-43.2 71.69,-43.2"/>
<text text-anchor="start" x="78.69" y="-55.4" font-family="Arial" font-size="14.00">created_at </text>
<text text-anchor="start" x="148.74" y="-55.4" font-family="Arial" font-size="14.00" fill="#666666">[timestamp with time zone]</text>
</g>
<!-- public.story_creation_example_ratings&#45;&gt;public.story_creation_examples -->
<g id="edge1" class="edge">
<title>public.story_creation_example_ratings:example_id&#45;&gt;public.story_creation_examples:id</title>
<path fill="none" stroke="black" d="M476.03,-494.17C526.5,-465.52 500.43,-212.6 440.61,-212.6"/>
<polygon fill="black" stroke="black" points="476.09,-494.15 465.27,-492.36 470.94,-495.52 466.75,-496.63 466.75,-496.63 466.75,-496.63 470.94,-495.52 467.58,-501.06 476.09,-494.15"/>
<text text-anchor="start" x="473.1" y="-506.8" font-family="Arial" font-size="10.00">FOREIGN KEY (example_id) REFERENCES story_creation_examples(id) ON DELETE CASCADE</text>
</g>
</g>
</svg>
