<?xml version="1.0" encoding="UTF-8" standalone="no"?>
<!DOCTYPE svg PUBLIC "-//W3C//DTD SVG 1.1//EN"
 "http://www.w3.org/Graphics/SVG/1.1/DTD/svg11.dtd">
<!-- Generated by graphviz version 12.1.2 (20240928.0832)
 -->
<!-- Title: public.story_creation_example_recommended_infos Pages: 1 -->
<svg width="1025pt" height="633pt"
 viewBox="0.00 0.00 1025.09 632.80" xmlns="http://www.w3.org/2000/svg" xmlns:xlink="http://www.w3.org/1999/xlink">
<g id="graph0" class="graph" transform="scale(1 1) rotate(0) translate(4 628.8)">
<title>public.story_creation_example_recommended_infos</title>
<polygon fill="white" stroke="none" points="-4,4 -4,-628.8 1021.09,-628.8 1021.09,4 -4,4"/>
<!-- public.story_creation_example_recommended_infos -->
<g id="node1" class="node">
<title>public.story_creation_example_recommended_infos</title>
<polygon fill="#efefef" stroke="none" points="46.2,-543 46.2,-578.6 563.07,-578.6 563.07,-543 46.2,-543"/>
<polygon fill="none" stroke="black" points="46.2,-543 46.2,-578.6 563.07,-578.6 563.07,-543 46.2,-543"/>
<text text-anchor="start" x="53.2" y="-556.4" font-family="Arial Bold" font-size="18.00">public.story_creation_example_recommended_infos</text>
<text text-anchor="start" x="431.58" y="-556.4" font-family="Arial" font-size="14.00">    </text>
<text text-anchor="start" x="462.7" y="-556.4" font-family="Arial" font-size="14.00" fill="#666666">[BASE TABLE]</text>
<polygon fill="none" stroke="black" points="46.2,-512.2 46.2,-543 563.07,-543 563.07,-512.2 46.2,-512.2"/>
<text text-anchor="start" x="53.2" y="-524.4" font-family="Arial" font-size="14.00">id </text>
<text text-anchor="start" x="67.99" y="-524.4" font-family="Arial" font-size="14.00" fill="#666666">[bigint]</text>
<polygon fill="none" stroke="black" points="46.2,-481.4 46.2,-512.2 563.07,-512.2 563.07,-481.4 46.2,-481.4"/>
<text text-anchor="start" x="53.2" y="-493.6" font-family="Arial" font-size="14.00">example_id </text>
<text text-anchor="start" x="128.69" y="-493.6" font-family="Arial" font-size="14.00" fill="#666666">[bigint]</text>
<polygon fill="none" stroke="black" points="46.2,-450.6 46.2,-481.4 563.07,-481.4 563.07,-450.6 46.2,-450.6"/>
<text text-anchor="start" x="53.2" y="-462.8" font-family="Arial" font-size="14.00">info_text </text>
<text text-anchor="start" x="110.01" y="-462.8" font-family="Arial" font-size="14.00" fill="#666666">[text]</text>
<polygon fill="none" stroke="black" points="46.2,-419.8 46.2,-450.6 563.07,-450.6 563.07,-419.8 46.2,-419.8"/>
<text text-anchor="start" x="53.2" y="-432" font-family="Arial" font-size="14.00">info_order </text>
<text text-anchor="start" x="120.13" y="-432" font-family="Arial" font-size="14.00" fill="#666666">[smallint]</text>
<polygon fill="none" stroke="black" points="46.2,-389 46.2,-419.8 563.07,-419.8 563.07,-389 46.2,-389"/>
<text text-anchor="start" x="53.2" y="-401.2" font-family="Arial" font-size="14.00">created_at </text>
<text text-anchor="start" x="123.25" y="-401.2" font-family="Arial" font-size="14.00" fill="#666666">[timestamp with time zone]</text>
<polygon fill="none" stroke="black" stroke-width="3" points="44.7,-387.5 44.7,-580.1 564.57,-580.1 564.57,-387.5 44.7,-387.5"/>
</g>
<!-- public.story_creation_examples -->
<g id="node2" class="node">
<title>public.story_creation_examples</title>
<polygon fill="#efefef" stroke="none" points="120.67,-228 120.67,-263.6 488.59,-263.6 488.59,-228 120.67,-228"/>
<polygon fill="none" stroke="black" points="120.67,-228 120.67,-263.6 488.59,-263.6 488.59,-228 120.67,-228"/>
<text text-anchor="start" x="127.67" y="-241.4" font-family="Arial Bold" font-size="18.00">public.story_creation_examples</text>
<text text-anchor="start" x="357.1" y="-241.4" font-family="Arial" font-size="14.00">    </text>
<text text-anchor="start" x="388.22" y="-241.4" font-family="Arial" font-size="14.00" fill="#666666">[BASE TABLE]</text>
<polygon fill="none" stroke="black" points="120.67,-197.2 120.67,-228 488.59,-228 488.59,-197.2 120.67,-197.2"/>
<text text-anchor="start" x="127.67" y="-209.4" font-family="Arial" font-size="14.00">id </text>
<text text-anchor="start" x="142.46" y="-209.4" font-family="Arial" font-size="14.00" fill="#666666">[bigint]</text>
<polygon fill="none" stroke="black" points="120.67,-166.4 120.67,-197.2 488.59,-197.2 488.59,-166.4 120.67,-166.4"/>
<text text-anchor="start" x="127.67" y="-178.6" font-family="Arial" font-size="14.00">creation_session_id </text>
<text text-anchor="start" x="255.31" y="-178.6" font-family="Arial" font-size="14.00" fill="#666666">[bigint]</text>
<polygon fill="none" stroke="black" points="120.67,-135.6 120.67,-166.4 488.59,-166.4 488.59,-135.6 120.67,-135.6"/>
<text text-anchor="start" x="127.67" y="-147.8" font-family="Arial" font-size="14.00">example_text </text>
<text text-anchor="start" x="214.83" y="-147.8" font-family="Arial" font-size="14.00" fill="#666666">[text]</text>
<polygon fill="none" stroke="black" points="120.67,-104.8 120.67,-135.6 488.59,-135.6 488.59,-104.8 120.67,-104.8"/>
<text text-anchor="start" x="127.67" y="-117" font-family="Arial" font-size="14.00">example_order </text>
<text text-anchor="start" x="224.95" y="-117" font-family="Arial" font-size="14.00" fill="#666666">[smallint]</text>
<polygon fill="none" stroke="black" points="120.67,-74 120.67,-104.8 488.59,-104.8 488.59,-74 120.67,-74"/>
<text text-anchor="start" x="127.67" y="-86.2" font-family="Arial" font-size="14.00">is_selected </text>
<text text-anchor="start" x="201.6" y="-86.2" font-family="Arial" font-size="14.00" fill="#666666">[boolean]</text>
<polygon fill="none" stroke="black" points="120.67,-43.2 120.67,-74 488.59,-74 488.59,-43.2 120.67,-43.2"/>
<text text-anchor="start" x="127.67" y="-55.4" font-family="Arial" font-size="14.00">created_at </text>
<text text-anchor="start" x="197.72" y="-55.4" font-family="Arial" font-size="14.00" fill="#666666">[timestamp with time zone]</text>
</g>
<!-- public.story_creation_example_recommended_infos&#45;&gt;public.story_creation_examples -->
<g id="edge1" class="edge">
<title>public.story_creation_example_recommended_infos:example_id&#45;&gt;public.story_creation_examples:id</title>
<path fill="none" stroke="black" d="M574.32,-496.17C690.53,-481.47 616.6,-212.6 489.59,-212.6"/>
<polygon fill="black" stroke="black" points="574.38,-496.17 564.13,-492.29 569.06,-496.5 564.73,-496.76 564.73,-496.76 564.73,-496.76 569.06,-496.5 564.68,-501.27 574.38,-496.17"/>
<text text-anchor="start" x="571.07" y="-506.8" font-family="Arial" font-size="10.00">FOREIGN KEY (example_id) REFERENCES story_creation_examples(id) ON DELETE CASCADE</text>
</g>
</g>
</svg>
