<?xml version="1.0" encoding="UTF-8" standalone="no"?>
<!DOCTYPE svg PUBLIC "-//W3C//DTD SVG 1.1//EN"
 "http://www.w3.org/Graphics/SVG/1.1/DTD/svg11.dtd">
<!-- Generated by graphviz version 12.1.2 (20240928.0832)
 -->
<!-- Title: public.story_creation_examples Pages: 1 -->
<svg width="1267pt" height="976pt"
 viewBox="0.00 0.00 1266.97 975.60" xmlns="http://www.w3.org/2000/svg" xmlns:xlink="http://www.w3.org/1999/xlink">
<g id="graph0" class="graph" transform="scale(1 1) rotate(0) translate(4 971.6)">
<title>public.story_creation_examples</title>
<polygon fill="white" stroke="none" points="-4,4 -4,-971.6 1262.97,-971.6 1262.97,4 -4,4"/>
<!-- public.story_creation_examples -->
<g id="node1" class="node">
<title>public.story_creation_examples</title>
<polygon fill="#efefef" stroke="none" points="403.67,-573.8 403.67,-609.4 771.59,-609.4 771.59,-573.8 403.67,-573.8"/>
<polygon fill="none" stroke="black" points="403.67,-573.8 403.67,-609.4 771.59,-609.4 771.59,-573.8 403.67,-573.8"/>
<text text-anchor="start" x="410.67" y="-587.2" font-family="Arial Bold" font-size="18.00">public.story_creation_examples</text>
<text text-anchor="start" x="640.1" y="-587.2" font-family="Arial" font-size="14.00">    </text>
<text text-anchor="start" x="671.22" y="-587.2" font-family="Arial" font-size="14.00" fill="#666666">[BASE TABLE]</text>
<polygon fill="none" stroke="black" points="403.67,-543 403.67,-573.8 771.59,-573.8 771.59,-543 403.67,-543"/>
<text text-anchor="start" x="410.67" y="-555.2" font-family="Arial" font-size="14.00">id </text>
<text text-anchor="start" x="425.46" y="-555.2" font-family="Arial" font-size="14.00" fill="#666666">[bigint]</text>
<polygon fill="none" stroke="black" points="403.67,-512.2 403.67,-543 771.59,-543 771.59,-512.2 403.67,-512.2"/>
<text text-anchor="start" x="410.67" y="-524.4" font-family="Arial" font-size="14.00">creation_session_id </text>
<text text-anchor="start" x="538.31" y="-524.4" font-family="Arial" font-size="14.00" fill="#666666">[bigint]</text>
<polygon fill="none" stroke="black" points="403.67,-481.4 403.67,-512.2 771.59,-512.2 771.59,-481.4 403.67,-481.4"/>
<text text-anchor="start" x="410.67" y="-493.6" font-family="Arial" font-size="14.00">example_text </text>
<text text-anchor="start" x="497.83" y="-493.6" font-family="Arial" font-size="14.00" fill="#666666">[text]</text>
<polygon fill="none" stroke="black" points="403.67,-450.6 403.67,-481.4 771.59,-481.4 771.59,-450.6 403.67,-450.6"/>
<text text-anchor="start" x="410.67" y="-462.8" font-family="Arial" font-size="14.00">example_order </text>
<text text-anchor="start" x="507.95" y="-462.8" font-family="Arial" font-size="14.00" fill="#666666">[smallint]</text>
<polygon fill="none" stroke="black" points="403.67,-419.8 403.67,-450.6 771.59,-450.6 771.59,-419.8 403.67,-419.8"/>
<text text-anchor="start" x="410.67" y="-432" font-family="Arial" font-size="14.00">is_selected </text>
<text text-anchor="start" x="484.6" y="-432" font-family="Arial" font-size="14.00" fill="#666666">[boolean]</text>
<polygon fill="none" stroke="black" points="403.67,-389 403.67,-419.8 771.59,-419.8 771.59,-389 403.67,-389"/>
<text text-anchor="start" x="410.67" y="-401.2" font-family="Arial" font-size="14.00">created_at </text>
<text text-anchor="start" x="480.72" y="-401.2" font-family="Arial" font-size="14.00" fill="#666666">[timestamp with time zone]</text>
<polygon fill="none" stroke="black" stroke-width="3" points="402.17,-387.5 402.17,-610.9 773.09,-610.9 773.09,-387.5 402.17,-387.5"/>
</g>
<!-- public.story_creation_sessions -->
<g id="node4" class="node">
<title>public.story_creation_sessions</title>
<polygon fill="#efefef" stroke="none" points="408.16,-228 408.16,-263.6 767.11,-263.6 767.11,-228 408.16,-228"/>
<polygon fill="none" stroke="black" points="408.16,-228 408.16,-263.6 767.11,-263.6 767.11,-228 408.16,-228"/>
<text text-anchor="start" x="415.16" y="-241.4" font-family="Arial Bold" font-size="18.00">public.story_creation_sessions</text>
<text text-anchor="start" x="635.62" y="-241.4" font-family="Arial" font-size="14.00">    </text>
<text text-anchor="start" x="666.74" y="-241.4" font-family="Arial" font-size="14.00" fill="#666666">[BASE TABLE]</text>
<polygon fill="none" stroke="black" points="408.16,-197.2 408.16,-228 767.11,-228 767.11,-197.2 408.16,-197.2"/>
<text text-anchor="start" x="415.16" y="-209.4" font-family="Arial" font-size="14.00">id </text>
<text text-anchor="start" x="429.94" y="-209.4" font-family="Arial" font-size="14.00" fill="#666666">[bigint]</text>
<polygon fill="none" stroke="black" points="408.16,-166.4 408.16,-197.2 767.11,-197.2 767.11,-166.4 408.16,-166.4"/>
<text text-anchor="start" x="415.16" y="-178.6" font-family="Arial" font-size="14.00">user_id </text>
<text text-anchor="start" x="464.96" y="-178.6" font-family="Arial" font-size="14.00" fill="#666666">[bigint]</text>
<polygon fill="none" stroke="black" points="408.16,-135.6 408.16,-166.4 767.11,-166.4 767.11,-135.6 408.16,-135.6"/>
<text text-anchor="start" x="415.16" y="-147.8" font-family="Arial" font-size="14.00">story_id </text>
<text text-anchor="start" x="468.07" y="-147.8" font-family="Arial" font-size="14.00" fill="#666666">[bigint]</text>
<polygon fill="none" stroke="black" points="408.16,-104.8 408.16,-135.6 767.11,-135.6 767.11,-104.8 408.16,-104.8"/>
<text text-anchor="start" x="415.16" y="-117" font-family="Arial" font-size="14.00">status </text>
<text text-anchor="start" x="456.4" y="-117" font-family="Arial" font-size="14.00" fill="#666666">[varchar(30)]</text>
<polygon fill="none" stroke="black" points="408.16,-74 408.16,-104.8 767.11,-104.8 767.11,-74 408.16,-74"/>
<text text-anchor="start" x="415.16" y="-86.2" font-family="Arial" font-size="14.00">created_at </text>
<text text-anchor="start" x="485.2" y="-86.2" font-family="Arial" font-size="14.00" fill="#666666">[timestamp with time zone]</text>
<polygon fill="none" stroke="black" points="408.16,-43.2 408.16,-74 767.11,-74 767.11,-43.2 408.16,-43.2"/>
<text text-anchor="start" x="415.16" y="-55.4" font-family="Arial" font-size="14.00">updated_at </text>
<text text-anchor="start" x="489.11" y="-55.4" font-family="Arial" font-size="14.00" fill="#666666">[timestamp with time zone]</text>
</g>
<!-- public.story_creation_examples&#45;&gt;public.story_creation_sessions -->
<g id="edge3" class="edge">
<title>public.story_creation_examples:creation_session_id&#45;&gt;public.story_creation_sessions:id</title>
<path fill="none" stroke="black" d="M782.98,-527C912.29,-511.81 904.57,-212.6 768.11,-212.6"/>
<polygon fill="black" stroke="black" points="782.91,-527 772.67,-523.09 777.58,-527.31 773.26,-527.56 773.26,-527.56 773.26,-527.56 777.58,-527.31 773.19,-532.07 782.91,-527"/>
<text text-anchor="start" x="779.59" y="-537.6" font-family="Arial" font-size="10.00">FOREIGN KEY (creation_session_id) REFERENCES story_creation_sessions(id) ON DELETE CASCADE</text>
</g>
<!-- public.story_creation_example_recommended_infos -->
<g id="node2" class="node">
<title>public.story_creation_example_recommended_infos</title>
<polygon fill="#efefef" stroke="none" points="43.2,-888.8 43.2,-924.4 560.07,-924.4 560.07,-888.8 43.2,-888.8"/>
<polygon fill="none" stroke="black" points="43.2,-888.8 43.2,-924.4 560.07,-924.4 560.07,-888.8 43.2,-888.8"/>
<text text-anchor="start" x="50.2" y="-902.2" font-family="Arial Bold" font-size="18.00">public.story_creation_example_recommended_infos</text>
<text text-anchor="start" x="428.58" y="-902.2" font-family="Arial" font-size="14.00">    </text>
<text text-anchor="start" x="459.7" y="-902.2" font-family="Arial" font-size="14.00" fill="#666666">[BASE TABLE]</text>
<polygon fill="none" stroke="black" points="43.2,-858 43.2,-888.8 560.07,-888.8 560.07,-858 43.2,-858"/>
<text text-anchor="start" x="50.2" y="-870.2" font-family="Arial" font-size="14.00">id </text>
<text text-anchor="start" x="64.99" y="-870.2" font-family="Arial" font-size="14.00" fill="#666666">[bigint]</text>
<polygon fill="none" stroke="black" points="43.2,-827.2 43.2,-858 560.07,-858 560.07,-827.2 43.2,-827.2"/>
<text text-anchor="start" x="50.2" y="-839.4" font-family="Arial" font-size="14.00">example_id </text>
<text text-anchor="start" x="125.69" y="-839.4" font-family="Arial" font-size="14.00" fill="#666666">[bigint]</text>
<polygon fill="none" stroke="black" points="43.2,-796.4 43.2,-827.2 560.07,-827.2 560.07,-796.4 43.2,-796.4"/>
<text text-anchor="start" x="50.2" y="-808.6" font-family="Arial" font-size="14.00">info_text </text>
<text text-anchor="start" x="107.01" y="-808.6" font-family="Arial" font-size="14.00" fill="#666666">[text]</text>
<polygon fill="none" stroke="black" points="43.2,-765.6 43.2,-796.4 560.07,-796.4 560.07,-765.6 43.2,-765.6"/>
<text text-anchor="start" x="50.2" y="-777.8" font-family="Arial" font-size="14.00">info_order </text>
<text text-anchor="start" x="117.13" y="-777.8" font-family="Arial" font-size="14.00" fill="#666666">[smallint]</text>
<polygon fill="none" stroke="black" points="43.2,-734.8 43.2,-765.6 560.07,-765.6 560.07,-734.8 43.2,-734.8"/>
<text text-anchor="start" x="50.2" y="-747" font-family="Arial" font-size="14.00">created_at </text>
<text text-anchor="start" x="120.25" y="-747" font-family="Arial" font-size="14.00" fill="#666666">[timestamp with time zone]</text>
</g>
<!-- public.story_creation_example_recommended_infos&#45;&gt;public.story_creation_examples -->
<g id="edge1" class="edge">
<title>public.story_creation_example_recommended_infos:example_id&#45;&gt;public.story_creation_examples:id</title>
<path fill="none" stroke="black" d="M571.25,-841.74C625.27,-831.95 599.74,-741.11 560.07,-691.6 515.46,-635.94 448.38,-711.18 403.67,-655.6 376.6,-621.94 359.47,-558.4 402.67,-558.4"/>
<polygon fill="black" stroke="black" points="571.36,-841.73 561.02,-838.09 566.05,-842.18 561.73,-842.54 561.73,-842.54 561.73,-842.54 566.05,-842.18 561.78,-847.06 571.36,-841.73"/>
<text text-anchor="start" x="568.07" y="-852.6" font-family="Arial" font-size="10.00">FOREIGN KEY (example_id) REFERENCES story_creation_examples(id) ON DELETE CASCADE</text>
</g>
<!-- public.story_creation_example_ratings -->
<g id="node3" class="node">
<title>public.story_creation_example_ratings</title>
<polygon fill="#efefef" stroke="none" points="664.18,-888.8 664.18,-924.4 1083.09,-924.4 1083.09,-888.8 664.18,-888.8"/>
<polygon fill="none" stroke="black" points="664.18,-888.8 664.18,-924.4 1083.09,-924.4 1083.09,-888.8 664.18,-888.8"/>
<text text-anchor="start" x="671.18" y="-902.2" font-family="Arial Bold" font-size="18.00">public.story_creation_example_ratings</text>
<text text-anchor="start" x="951.6" y="-902.2" font-family="Arial" font-size="14.00">    </text>
<text text-anchor="start" x="982.71" y="-902.2" font-family="Arial" font-size="14.00" fill="#666666">[BASE TABLE]</text>
<polygon fill="none" stroke="black" points="664.18,-858 664.18,-888.8 1083.09,-888.8 1083.09,-858 664.18,-858"/>
<text text-anchor="start" x="671.18" y="-870.2" font-family="Arial" font-size="14.00">id </text>
<text text-anchor="start" x="685.97" y="-870.2" font-family="Arial" font-size="14.00" fill="#666666">[bigint]</text>
<polygon fill="none" stroke="black" points="664.18,-827.2 664.18,-858 1083.09,-858 1083.09,-827.2 664.18,-827.2"/>
<text text-anchor="start" x="671.18" y="-839.4" font-family="Arial" font-size="14.00">example_id </text>
<text text-anchor="start" x="746.67" y="-839.4" font-family="Arial" font-size="14.00" fill="#666666">[bigint]</text>
<polygon fill="none" stroke="black" points="664.18,-796.4 664.18,-827.2 1083.09,-827.2 1083.09,-796.4 664.18,-796.4"/>
<text text-anchor="start" x="671.18" y="-808.6" font-family="Arial" font-size="14.00">rating </text>
<text text-anchor="start" x="710.09" y="-808.6" font-family="Arial" font-size="14.00" fill="#666666">[varchar(8)]</text>
<polygon fill="none" stroke="black" points="664.18,-765.6 664.18,-796.4 1083.09,-796.4 1083.09,-765.6 664.18,-765.6"/>
<text text-anchor="start" x="671.18" y="-777.8" font-family="Arial" font-size="14.00">created_at </text>
<text text-anchor="start" x="741.23" y="-777.8" font-family="Arial" font-size="14.00" fill="#666666">[timestamp with time zone]</text>
<polygon fill="none" stroke="black" points="664.18,-734.8 664.18,-765.6 1083.09,-765.6 1083.09,-734.8 664.18,-734.8"/>
<text text-anchor="start" x="671.18" y="-747" font-family="Arial" font-size="14.00">updated_at </text>
<text text-anchor="start" x="745.14" y="-747" font-family="Arial" font-size="14.00" fill="#666666">[timestamp with time zone]</text>
</g>
<!-- public.story_creation_example_ratings&#45;&gt;public.story_creation_examples -->
<g id="edge2" class="edge">
<title>public.story_creation_example_ratings:example_id&#45;&gt;public.story_creation_examples:id</title>
<path fill="none" stroke="black" d="M653.02,-841.76C599.24,-832.16 626.96,-742.97 664.18,-691.6 693.72,-650.83 741.98,-696.32 771.59,-655.6 797.01,-620.66 815.8,-558.4 772.59,-558.4"/>
<polygon fill="black" stroke="black" points="652.88,-841.74 662.48,-847.06 658.2,-842.19 662.51,-842.54 662.51,-842.54 662.51,-842.54 658.2,-842.19 663.22,-838.09 652.88,-841.74"/>
<text text-anchor="start" x="670.18" y="-826.6" font-family="Arial" font-size="10.00">FOREIGN KEY (example_id) REFERENCES story_creation_examples(id) ON DELETE CASCADE</text>
</g>
</g>
</svg>
