<?xml version="1.0" encoding="UTF-8" standalone="no"?>
<!DOCTYPE svg PUBLIC "-//W3C//DTD SVG 1.1//EN"
 "http://www.w3.org/Graphics/SVG/1.1/DTD/svg11.dtd">
<!-- Generated by graphviz version 12.1.2 (20240928.0832)
 -->
<!-- Title: public.stories Pages: 1 -->
<svg width="1273pt" height="972pt"
 viewBox="0.00 0.00 1273.38 971.60" xmlns="http://www.w3.org/2000/svg" xmlns:xlink="http://www.w3.org/1999/xlink">
<g id="graph0" class="graph" transform="scale(1 1) rotate(0) translate(4 967.6)">
<title>public.stories</title>
<polygon fill="white" stroke="none" points="-4,4 -4,-967.6 1269.38,-967.6 1269.38,4 -4,4"/>
<!-- public.stories -->
<g id="node1" class="node">
<title>public.stories</title>
<polygon fill="#efefef" stroke="none" points="495.34,-354.2 495.34,-389.8 749.03,-389.8 749.03,-354.2 495.34,-354.2"/>
<polygon fill="none" stroke="black" points="495.34,-354.2 495.34,-389.8 749.03,-389.8 749.03,-354.2 495.34,-354.2"/>
<text text-anchor="start" x="511.7" y="-367.6" font-family="Arial Bold" font-size="18.00">public.stories</text>
<text text-anchor="start" x="608.18" y="-367.6" font-family="Arial" font-size="14.00">    </text>
<text text-anchor="start" x="639.3" y="-367.6" font-family="Arial" font-size="14.00" fill="#666666">[BASE TABLE]</text>
<polygon fill="none" stroke="black" points="495.34,-323.4 495.34,-354.2 749.03,-354.2 749.03,-323.4 495.34,-323.4"/>
<text text-anchor="start" x="502.34" y="-335.6" font-family="Arial" font-size="14.00">id </text>
<text text-anchor="start" x="517.13" y="-335.6" font-family="Arial" font-size="14.00" fill="#666666">[bigint]</text>
<polygon fill="none" stroke="black" points="495.34,-292.6 495.34,-323.4 749.03,-323.4 749.03,-292.6 495.34,-292.6"/>
<text text-anchor="start" x="502.34" y="-304.8" font-family="Arial" font-size="14.00">user_id </text>
<text text-anchor="start" x="552.15" y="-304.8" font-family="Arial" font-size="14.00" fill="#666666">[bigint]</text>
<polygon fill="none" stroke="black" points="495.34,-261.8 495.34,-292.6 749.03,-292.6 749.03,-261.8 495.34,-261.8"/>
<text text-anchor="start" x="502.34" y="-274" font-family="Arial" font-size="14.00">title </text>
<text text-anchor="start" x="528.02" y="-274" font-family="Arial" font-size="14.00" fill="#666666">[varchar(100)]</text>
<polygon fill="none" stroke="black" points="495.34,-231 495.34,-261.8 749.03,-261.8 749.03,-231 495.34,-231"/>
<text text-anchor="start" x="502.34" y="-243.2" font-family="Arial" font-size="14.00">one_line_intro </text>
<text text-anchor="start" x="594.19" y="-243.2" font-family="Arial" font-size="14.00" fill="#666666">[varchar(255)]</text>
<polygon fill="none" stroke="black" points="495.34,-200.2 495.34,-231 749.03,-231 749.03,-200.2 495.34,-200.2"/>
<text text-anchor="start" x="502.34" y="-212.4" font-family="Arial" font-size="14.00">description </text>
<text text-anchor="start" x="573.94" y="-212.4" font-family="Arial" font-size="14.00" fill="#666666">[text]</text>
<polygon fill="none" stroke="black" points="495.34,-169.4 495.34,-200.2 749.03,-200.2 749.03,-169.4 495.34,-169.4"/>
<text text-anchor="start" x="502.34" y="-181.6" font-family="Arial" font-size="14.00">genre </text>
<text text-anchor="start" x="542.04" y="-181.6" font-family="Arial" font-size="14.00" fill="#666666">[varchar(255)]</text>
<polygon fill="none" stroke="black" points="495.34,-138.6 495.34,-169.4 749.03,-169.4 749.03,-138.6 495.34,-138.6"/>
<text text-anchor="start" x="502.34" y="-150.8" font-family="Arial" font-size="14.00">created_at </text>
<text text-anchor="start" x="572.39" y="-150.8" font-family="Arial" font-size="14.00" fill="#666666">[timestamp with time zone]</text>
<polygon fill="none" stroke="black" points="495.34,-107.8 495.34,-138.6 749.03,-138.6 749.03,-107.8 495.34,-107.8"/>
<text text-anchor="start" x="502.34" y="-120" font-family="Arial" font-size="14.00">updated_at </text>
<text text-anchor="start" x="576.3" y="-120" font-family="Arial" font-size="14.00" fill="#666666">[timestamp with time zone]</text>
<polygon fill="none" stroke="black" points="495.34,-77 495.34,-107.8 749.03,-107.8 749.03,-77 495.34,-77"/>
<text text-anchor="start" x="502.34" y="-89.2" font-family="Arial" font-size="14.00">deleted_at </text>
<text text-anchor="start" x="571.63" y="-89.2" font-family="Arial" font-size="14.00" fill="#666666">[timestamp with time zone]</text>
<polygon fill="none" stroke="black" points="495.34,-46.2 495.34,-77 749.03,-77 749.03,-46.2 495.34,-46.2"/>
<text text-anchor="start" x="502.34" y="-58.4" font-family="Arial" font-size="14.00">public_id </text>
<text text-anchor="start" x="561.5" y="-58.4" font-family="Arial" font-size="14.00" fill="#666666">[uuid]</text>
<polygon fill="none" stroke="black" stroke-width="3" points="493.84,-44.7 493.84,-391.3 750.53,-391.3 750.53,-44.7 493.84,-44.7"/>
</g>
<!-- public.story_settings -->
<g id="node2" class="node">
<title>public.story_settings</title>
<polygon fill="#efefef" stroke="none" points="66.19,-823.2 66.19,-858.8 354.18,-858.8 354.18,-823.2 66.19,-823.2"/>
<polygon fill="none" stroke="black" points="66.19,-823.2 66.19,-858.8 354.18,-858.8 354.18,-823.2 66.19,-823.2"/>
<text text-anchor="start" x="73.19" y="-836.6" font-family="Arial Bold" font-size="18.00">public.story_settings</text>
<text text-anchor="start" x="222.69" y="-836.6" font-family="Arial" font-size="14.00">    </text>
<text text-anchor="start" x="253.8" y="-836.6" font-family="Arial" font-size="14.00" fill="#666666">[BASE TABLE]</text>
<polygon fill="none" stroke="black" points="66.19,-792.4 66.19,-823.2 354.18,-823.2 354.18,-792.4 66.19,-792.4"/>
<text text-anchor="start" x="73.19" y="-804.6" font-family="Arial" font-size="14.00">id </text>
<text text-anchor="start" x="87.98" y="-804.6" font-family="Arial" font-size="14.00" fill="#666666">[bigint]</text>
<polygon fill="none" stroke="black" points="66.19,-761.6 66.19,-792.4 354.18,-792.4 354.18,-761.6 66.19,-761.6"/>
<text text-anchor="start" x="73.19" y="-773.8" font-family="Arial" font-size="14.00">story_id </text>
<text text-anchor="start" x="126.1" y="-773.8" font-family="Arial" font-size="14.00" fill="#666666">[bigint]</text>
<polygon fill="none" stroke="black" points="66.19,-730.8 66.19,-761.6 354.18,-761.6 354.18,-730.8 66.19,-730.8"/>
<text text-anchor="start" x="73.19" y="-743" font-family="Arial" font-size="14.00">world_setting </text>
<text text-anchor="start" x="159.57" y="-743" font-family="Arial" font-size="14.00" fill="#666666">[text]</text>
<polygon fill="none" stroke="black" points="66.19,-700 66.19,-730.8 354.18,-730.8 354.18,-700 66.19,-700"/>
<text text-anchor="start" x="73.19" y="-712.2" font-family="Arial" font-size="14.00">character_setting </text>
<text text-anchor="start" x="184.48" y="-712.2" font-family="Arial" font-size="14.00" fill="#666666">[text]</text>
<polygon fill="none" stroke="black" points="66.19,-669.2 66.19,-700 354.18,-700 354.18,-669.2 66.19,-669.2"/>
<text text-anchor="start" x="73.19" y="-681.4" font-family="Arial" font-size="14.00">user_role_setting </text>
<text text-anchor="start" x="184.48" y="-681.4" font-family="Arial" font-size="14.00" fill="#666666">[text]</text>
<polygon fill="none" stroke="black" points="66.19,-638.4 66.19,-669.2 354.18,-669.2 354.18,-638.4 66.19,-638.4"/>
<text text-anchor="start" x="73.19" y="-650.6" font-family="Arial" font-size="14.00">rule_setting </text>
<text text-anchor="start" x="149.46" y="-650.6" font-family="Arial" font-size="14.00" fill="#666666">[text]</text>
<polygon fill="none" stroke="black" points="66.19,-607.6 66.19,-638.4 354.18,-638.4 354.18,-607.6 66.19,-607.6"/>
<text text-anchor="start" x="73.19" y="-619.8" font-family="Arial" font-size="14.00">created_at </text>
<text text-anchor="start" x="143.24" y="-619.8" font-family="Arial" font-size="14.00" fill="#666666">[timestamp with time zone]</text>
<polygon fill="none" stroke="black" points="66.19,-576.8 66.19,-607.6 354.18,-607.6 354.18,-576.8 66.19,-576.8"/>
<text text-anchor="start" x="73.19" y="-589" font-family="Arial" font-size="14.00">updated_at </text>
<text text-anchor="start" x="147.15" y="-589" font-family="Arial" font-size="14.00" fill="#666666">[timestamp with time zone]</text>
</g>
<!-- public.story_settings&#45;&gt;public.stories -->
<g id="edge1" class="edge">
<title>public.story_settings:story_id&#45;&gt;public.stories:id</title>
<path fill="none" stroke="black" d="M365.14,-775.05C419.56,-752.07 382.33,-532.57 406.19,-472 432.2,-405.95 423.35,-338.8 494.34,-338.8"/>
<polygon fill="black" stroke="black" points="365.32,-775.02 354.64,-772.52 360.08,-776.04 355.83,-776.87 355.83,-776.87 355.83,-776.87 360.08,-776.04 356.37,-781.35 365.32,-775.02"/>
<text text-anchor="start" x="7" y="-787" font-family="Arial" font-size="10.00">FOREIGN KEY (story_id) REFERENCES stories(id) ON DELETE CASCADE</text>
</g>
<!-- public.story_start_settings -->
<g id="node3" class="node">
<title>public.story_start_settings</title>
<polygon fill="#efefef" stroke="none" points="458.2,-807.8 458.2,-843.4 786.17,-843.4 786.17,-807.8 458.2,-807.8"/>
<polygon fill="none" stroke="black" points="458.2,-807.8 458.2,-843.4 786.17,-843.4 786.17,-807.8 458.2,-807.8"/>
<text text-anchor="start" x="465.2" y="-821.2" font-family="Arial Bold" font-size="18.00">public.story_start_settings</text>
<text text-anchor="start" x="654.68" y="-821.2" font-family="Arial" font-size="14.00">    </text>
<text text-anchor="start" x="685.8" y="-821.2" font-family="Arial" font-size="14.00" fill="#666666">[BASE TABLE]</text>
<polygon fill="none" stroke="black" points="458.2,-777 458.2,-807.8 786.17,-807.8 786.17,-777 458.2,-777"/>
<text text-anchor="start" x="465.2" y="-789.2" font-family="Arial" font-size="14.00">id </text>
<text text-anchor="start" x="479.99" y="-789.2" font-family="Arial" font-size="14.00" fill="#666666">[bigint]</text>
<polygon fill="none" stroke="black" points="458.2,-746.2 458.2,-777 786.17,-777 786.17,-746.2 458.2,-746.2"/>
<text text-anchor="start" x="465.2" y="-758.4" font-family="Arial" font-size="14.00">story_id </text>
<text text-anchor="start" x="518.11" y="-758.4" font-family="Arial" font-size="14.00" fill="#666666">[bigint]</text>
<polygon fill="none" stroke="black" points="458.2,-715.4 458.2,-746.2 786.17,-746.2 786.17,-715.4 458.2,-715.4"/>
<text text-anchor="start" x="465.2" y="-727.6" font-family="Arial" font-size="14.00">name </text>
<text text-anchor="start" x="504.11" y="-727.6" font-family="Arial" font-size="14.00" fill="#666666">[varchar(100)]</text>
<polygon fill="none" stroke="black" points="458.2,-684.6 458.2,-715.4 786.17,-715.4 786.17,-684.6 458.2,-684.6"/>
<text text-anchor="start" x="465.2" y="-696.8" font-family="Arial" font-size="14.00">prologue </text>
<text text-anchor="start" x="523.58" y="-696.8" font-family="Arial" font-size="14.00" fill="#666666">[text]</text>
<polygon fill="none" stroke="black" points="458.2,-653.8 458.2,-684.6 786.17,-684.6 786.17,-653.8 458.2,-653.8"/>
<text text-anchor="start" x="465.2" y="-666" font-family="Arial" font-size="14.00">start_situation </text>
<text text-anchor="start" x="556.25" y="-666" font-family="Arial" font-size="14.00" fill="#666666">[text]</text>
<polygon fill="none" stroke="black" points="458.2,-623 458.2,-653.8 786.17,-653.8 786.17,-623 458.2,-623"/>
<text text-anchor="start" x="465.2" y="-635.2" font-family="Arial" font-size="14.00">created_at </text>
<text text-anchor="start" x="535.25" y="-635.2" font-family="Arial" font-size="14.00" fill="#666666">[timestamp with time zone]</text>
<polygon fill="none" stroke="black" points="458.2,-592.2 458.2,-623 786.17,-623 786.17,-592.2 458.2,-592.2"/>
<text text-anchor="start" x="465.2" y="-604.4" font-family="Arial" font-size="14.00">updated_at </text>
<text text-anchor="start" x="539.16" y="-604.4" font-family="Arial" font-size="14.00" fill="#666666">[timestamp with time zone]</text>
</g>
<!-- public.story_start_settings&#45;&gt;public.stories -->
<g id="edge2" class="edge">
<title>public.story_start_settings:story_id&#45;&gt;public.stories:id</title>
<path fill="none" stroke="black" d="M795.68,-755.94C829.21,-705.77 793.96,-338.8 750.03,-338.8"/>
<polygon fill="black" stroke="black" points="795.78,-755.88 784.96,-757.67 791.34,-758.83 787.73,-761.23 787.73,-761.23 787.73,-761.23 791.34,-758.83 789.94,-765.16 795.78,-755.88"/>
<text text-anchor="start" x="616.58" y="-745.6" font-family="Arial" font-size="10.00">FOREIGN KEY (story_id) REFERENCES stories(id) ON DELETE CASCADE</text>
</g>
<!-- public.story_play_sessions -->
<g id="node4" class="node">
<title>public.story_play_sessions</title>
<polygon fill="#efefef" stroke="none" points="890.2,-884.8 890.2,-920.4 1222.18,-920.4 1222.18,-884.8 890.2,-884.8"/>
<polygon fill="none" stroke="black" points="890.2,-884.8 890.2,-920.4 1222.18,-920.4 1222.18,-884.8 890.2,-884.8"/>
<text text-anchor="start" x="897.2" y="-898.2" font-family="Arial Bold" font-size="18.00">public.story_play_sessions</text>
<text text-anchor="start" x="1090.69" y="-898.2" font-family="Arial" font-size="14.00">    </text>
<text text-anchor="start" x="1121.8" y="-898.2" font-family="Arial" font-size="14.00" fill="#666666">[BASE TABLE]</text>
<polygon fill="none" stroke="black" points="890.2,-854 890.2,-884.8 1222.18,-884.8 1222.18,-854 890.2,-854"/>
<text text-anchor="start" x="897.2" y="-866.2" font-family="Arial" font-size="14.00">id </text>
<text text-anchor="start" x="911.98" y="-866.2" font-family="Arial" font-size="14.00" fill="#666666">[bigint]</text>
<polygon fill="none" stroke="black" points="890.2,-823.2 890.2,-854 1222.18,-854 1222.18,-823.2 890.2,-823.2"/>
<text text-anchor="start" x="897.2" y="-835.4" font-family="Arial" font-size="14.00">user_id </text>
<text text-anchor="start" x="947" y="-835.4" font-family="Arial" font-size="14.00" fill="#666666">[bigint]</text>
<polygon fill="none" stroke="black" points="890.2,-792.4 890.2,-823.2 1222.18,-823.2 1222.18,-792.4 890.2,-792.4"/>
<text text-anchor="start" x="897.2" y="-804.6" font-family="Arial" font-size="14.00">story_id </text>
<text text-anchor="start" x="950.11" y="-804.6" font-family="Arial" font-size="14.00" fill="#666666">[bigint]</text>
<polygon fill="none" stroke="black" points="890.2,-761.6 890.2,-792.4 1222.18,-792.4 1222.18,-761.6 890.2,-761.6"/>
<text text-anchor="start" x="897.2" y="-773.8" font-family="Arial" font-size="14.00">start_setting_id </text>
<text text-anchor="start" x="996.03" y="-773.8" font-family="Arial" font-size="14.00" fill="#666666">[bigint]</text>
<polygon fill="none" stroke="black" points="890.2,-730.8 890.2,-761.6 1222.18,-761.6 1222.18,-730.8 890.2,-730.8"/>
<text text-anchor="start" x="897.2" y="-743" font-family="Arial" font-size="14.00">title </text>
<text text-anchor="start" x="922.87" y="-743" font-family="Arial" font-size="14.00" fill="#666666">[varchar(100)]</text>
<polygon fill="none" stroke="black" points="890.2,-700 890.2,-730.8 1222.18,-730.8 1222.18,-700 890.2,-700"/>
<text text-anchor="start" x="897.2" y="-712.2" font-family="Arial" font-size="14.00">summary </text>
<text text-anchor="start" x="958.64" y="-712.2" font-family="Arial" font-size="14.00" fill="#666666">[text]</text>
<polygon fill="none" stroke="black" points="890.2,-669.2 890.2,-700 1222.18,-700 1222.18,-669.2 890.2,-669.2"/>
<text text-anchor="start" x="897.2" y="-681.4" font-family="Arial" font-size="14.00">current_turn </text>
<text text-anchor="start" x="976.57" y="-681.4" font-family="Arial" font-size="14.00" fill="#666666">[integer]</text>
<polygon fill="none" stroke="black" points="890.2,-638.4 890.2,-669.2 1222.18,-669.2 1222.18,-638.4 890.2,-638.4"/>
<text text-anchor="start" x="897.2" y="-650.6" font-family="Arial" font-size="14.00">status </text>
<text text-anchor="start" x="938.44" y="-650.6" font-family="Arial" font-size="14.00" fill="#666666">[varchar(20)]</text>
<polygon fill="none" stroke="black" points="890.2,-607.6 890.2,-638.4 1222.18,-638.4 1222.18,-607.6 890.2,-607.6"/>
<text text-anchor="start" x="897.2" y="-619.8" font-family="Arial" font-size="14.00">created_at </text>
<text text-anchor="start" x="967.24" y="-619.8" font-family="Arial" font-size="14.00" fill="#666666">[timestamp with time zone]</text>
<polygon fill="none" stroke="black" points="890.2,-576.8 890.2,-607.6 1222.18,-607.6 1222.18,-576.8 890.2,-576.8"/>
<text text-anchor="start" x="897.2" y="-589" font-family="Arial" font-size="14.00">updated_at </text>
<text text-anchor="start" x="971.15" y="-589" font-family="Arial" font-size="14.00" fill="#666666">[timestamp with time zone]</text>
<polygon fill="none" stroke="black" points="890.2,-546 890.2,-576.8 1222.18,-576.8 1222.18,-546 890.2,-546"/>
<text text-anchor="start" x="897.2" y="-558.2" font-family="Arial" font-size="14.00">deleted_at </text>
<text text-anchor="start" x="966.48" y="-558.2" font-family="Arial" font-size="14.00" fill="#666666">[timestamp with time zone]</text>
<polygon fill="none" stroke="black" points="890.2,-515.2 890.2,-546 1222.18,-546 1222.18,-515.2 890.2,-515.2"/>
<text text-anchor="start" x="897.2" y="-527.4" font-family="Arial" font-size="14.00">public_id </text>
<text text-anchor="start" x="956.35" y="-527.4" font-family="Arial" font-size="14.00" fill="#666666">[uuid]</text>
</g>
<!-- public.story_play_sessions&#45;&gt;public.stories -->
<g id="edge3" class="edge">
<title>public.story_play_sessions:story_id&#45;&gt;public.stories:id</title>
<path fill="none" stroke="black" d="M879.02,-805.96C818.57,-782.35 863.99,-538.99 838.19,-472 812.67,-405.75 821.02,-338.8 750.03,-338.8"/>
<polygon fill="black" stroke="black" points="879.03,-805.96 888.06,-812.17 884.28,-806.91 888.54,-807.68 888.54,-807.68 888.54,-807.68 884.28,-806.91 889.67,-803.31 879.03,-805.96"/>
<text text-anchor="start" x="541.02" y="-817.8" font-family="Arial" font-size="10.00">FOREIGN KEY (story_id) REFERENCES stories(id) ON DELETE CASCADE</text>
</g>
</g>
</svg>
