<?xml version="1.0" encoding="UTF-8" standalone="no"?>
<!DOCTYPE svg PUBLIC "-//W3C//DTD SVG 1.1//EN"
 "http://www.w3.org/Graphics/SVG/1.1/DTD/svg11.dtd">
<!-- Generated by graphviz version 12.1.2 (20240928.0832)
 -->
<!-- Title: public.story_creation_sessions Pages: 1 -->
<svg width="1083pt" height="664pt"
 viewBox="0.00 0.00 1082.81 663.60" xmlns="http://www.w3.org/2000/svg" xmlns:xlink="http://www.w3.org/1999/xlink">
<g id="graph0" class="graph" transform="scale(1 1) rotate(0) translate(4 659.6)">
<title>public.story_creation_sessions</title>
<polygon fill="white" stroke="none" points="-4,4 -4,-659.6 1078.81,-659.6 1078.81,4 -4,4"/>
<!-- public.story_creation_sessions -->
<g id="node1" class="node">
<title>public.story_creation_sessions</title>
<polygon fill="#efefef" stroke="none" points="351.92,-231 351.92,-266.6 710.88,-266.6 710.88,-231 351.92,-231"/>
<polygon fill="none" stroke="black" points="351.92,-231 351.92,-266.6 710.88,-266.6 710.88,-231 351.92,-231"/>
<text text-anchor="start" x="358.92" y="-244.4" font-family="Arial Bold" font-size="18.00">public.story_creation_sessions</text>
<text text-anchor="start" x="579.39" y="-244.4" font-family="Arial" font-size="14.00">    </text>
<text text-anchor="start" x="610.51" y="-244.4" font-family="Arial" font-size="14.00" fill="#666666">[BASE TABLE]</text>
<polygon fill="none" stroke="black" points="351.92,-200.2 351.92,-231 710.88,-231 710.88,-200.2 351.92,-200.2"/>
<text text-anchor="start" x="358.92" y="-212.4" font-family="Arial" font-size="14.00">id </text>
<text text-anchor="start" x="373.71" y="-212.4" font-family="Arial" font-size="14.00" fill="#666666">[bigint]</text>
<polygon fill="none" stroke="black" points="351.92,-169.4 351.92,-200.2 710.88,-200.2 710.88,-169.4 351.92,-169.4"/>
<text text-anchor="start" x="358.92" y="-181.6" font-family="Arial" font-size="14.00">user_id </text>
<text text-anchor="start" x="408.73" y="-181.6" font-family="Arial" font-size="14.00" fill="#666666">[bigint]</text>
<polygon fill="none" stroke="black" points="351.92,-138.6 351.92,-169.4 710.88,-169.4 710.88,-138.6 351.92,-138.6"/>
<text text-anchor="start" x="358.92" y="-150.8" font-family="Arial" font-size="14.00">story_id </text>
<text text-anchor="start" x="411.83" y="-150.8" font-family="Arial" font-size="14.00" fill="#666666">[bigint]</text>
<polygon fill="none" stroke="black" points="351.92,-107.8 351.92,-138.6 710.88,-138.6 710.88,-107.8 351.92,-107.8"/>
<text text-anchor="start" x="358.92" y="-120" font-family="Arial" font-size="14.00">status </text>
<text text-anchor="start" x="400.17" y="-120" font-family="Arial" font-size="14.00" fill="#666666">[varchar(30)]</text>
<polygon fill="none" stroke="black" points="351.92,-77 351.92,-107.8 710.88,-107.8 710.88,-77 351.92,-77"/>
<text text-anchor="start" x="358.92" y="-89.2" font-family="Arial" font-size="14.00">created_at </text>
<text text-anchor="start" x="428.97" y="-89.2" font-family="Arial" font-size="14.00" fill="#666666">[timestamp with time zone]</text>
<polygon fill="none" stroke="black" points="351.92,-46.2 351.92,-77 710.88,-77 710.88,-46.2 351.92,-46.2"/>
<text text-anchor="start" x="358.92" y="-58.4" font-family="Arial" font-size="14.00">updated_at </text>
<text text-anchor="start" x="432.88" y="-58.4" font-family="Arial" font-size="14.00" fill="#666666">[timestamp with time zone]</text>
<polygon fill="none" stroke="black" stroke-width="3" points="350.42,-44.7 350.42,-268.1 712.38,-268.1 712.38,-44.7 350.42,-44.7"/>
</g>
<!-- public.story_creation_session_tags -->
<g id="node2" class="node">
<title>public.story_creation_session_tags</title>
<polygon fill="#efefef" stroke="none" points="95.43,-546 95.43,-581.6 485.37,-581.6 485.37,-546 95.43,-546"/>
<polygon fill="none" stroke="black" points="95.43,-546 95.43,-581.6 485.37,-581.6 485.37,-546 95.43,-546"/>
<text text-anchor="start" x="102.43" y="-559.4" font-family="Arial Bold" font-size="18.00">public.story_creation_session_tags</text>
<text text-anchor="start" x="353.88" y="-559.4" font-family="Arial" font-size="14.00">    </text>
<text text-anchor="start" x="385" y="-559.4" font-family="Arial" font-size="14.00" fill="#666666">[BASE TABLE]</text>
<polygon fill="none" stroke="black" points="95.43,-515.2 95.43,-546 485.37,-546 485.37,-515.2 95.43,-515.2"/>
<text text-anchor="start" x="102.43" y="-527.4" font-family="Arial" font-size="14.00">id </text>
<text text-anchor="start" x="117.21" y="-527.4" font-family="Arial" font-size="14.00" fill="#666666">[bigint]</text>
<polygon fill="none" stroke="black" points="95.43,-484.4 95.43,-515.2 485.37,-515.2 485.37,-484.4 95.43,-484.4"/>
<text text-anchor="start" x="102.43" y="-496.6" font-family="Arial" font-size="14.00">creation_session_id </text>
<text text-anchor="start" x="230.06" y="-496.6" font-family="Arial" font-size="14.00" fill="#666666">[bigint]</text>
<polygon fill="none" stroke="black" points="95.43,-453.6 95.43,-484.4 485.37,-484.4 485.37,-453.6 95.43,-453.6"/>
<text text-anchor="start" x="102.43" y="-465.8" font-family="Arial" font-size="14.00">tag_id </text>
<text text-anchor="start" x="144.46" y="-465.8" font-family="Arial" font-size="14.00" fill="#666666">[bigint]</text>
<polygon fill="none" stroke="black" points="95.43,-422.8 95.43,-453.6 485.37,-453.6 485.37,-422.8 95.43,-422.8"/>
<text text-anchor="start" x="102.43" y="-435" font-family="Arial" font-size="14.00">created_at </text>
<text text-anchor="start" x="172.48" y="-435" font-family="Arial" font-size="14.00" fill="#666666">[timestamp with time zone]</text>
</g>
<!-- public.story_creation_session_tags&#45;&gt;public.story_creation_sessions -->
<g id="edge1" class="edge">
<title>public.story_creation_session_tags:creation_session_id&#45;&gt;public.story_creation_sessions:id</title>
<path fill="none" stroke="black" d="M496.49,-498.73C536.11,-489.42 511.65,-421.75 485.37,-379.6 450.28,-323.32 387.07,-369.05 351.92,-312.8 329.03,-276.16 307.72,-215.6 350.92,-215.6"/>
<polygon fill="black" stroke="black" points="496.65,-498.71 486.23,-495.29 491.35,-499.27 487.04,-499.73 487.04,-499.73 487.04,-499.73 491.35,-499.27 487.18,-504.24 496.65,-498.71"/>
<text text-anchor="start" x="7" y="-509.8" font-family="Arial" font-size="10.00">FOREIGN KEY (creation_session_id) REFERENCES story_creation_sessions(id) ON DELETE CASCADE</text>
</g>
<!-- public.story_creation_examples -->
<g id="node3" class="node">
<title>public.story_creation_examples</title>
<polygon fill="#efefef" stroke="none" points="589.44,-576.8 589.44,-612.4 957.36,-612.4 957.36,-576.8 589.44,-576.8"/>
<polygon fill="none" stroke="black" points="589.44,-576.8 589.44,-612.4 957.36,-612.4 957.36,-576.8 589.44,-576.8"/>
<text text-anchor="start" x="596.44" y="-590.2" font-family="Arial Bold" font-size="18.00">public.story_creation_examples</text>
<text text-anchor="start" x="825.87" y="-590.2" font-family="Arial" font-size="14.00">    </text>
<text text-anchor="start" x="856.99" y="-590.2" font-family="Arial" font-size="14.00" fill="#666666">[BASE TABLE]</text>
<polygon fill="none" stroke="black" points="589.44,-546 589.44,-576.8 957.36,-576.8 957.36,-546 589.44,-546"/>
<text text-anchor="start" x="596.44" y="-558.2" font-family="Arial" font-size="14.00">id </text>
<text text-anchor="start" x="611.23" y="-558.2" font-family="Arial" font-size="14.00" fill="#666666">[bigint]</text>
<polygon fill="none" stroke="black" points="589.44,-515.2 589.44,-546 957.36,-546 957.36,-515.2 589.44,-515.2"/>
<text text-anchor="start" x="596.44" y="-527.4" font-family="Arial" font-size="14.00">creation_session_id </text>
<text text-anchor="start" x="724.08" y="-527.4" font-family="Arial" font-size="14.00" fill="#666666">[bigint]</text>
<polygon fill="none" stroke="black" points="589.44,-484.4 589.44,-515.2 957.36,-515.2 957.36,-484.4 589.44,-484.4"/>
<text text-anchor="start" x="596.44" y="-496.6" font-family="Arial" font-size="14.00">example_text </text>
<text text-anchor="start" x="683.6" y="-496.6" font-family="Arial" font-size="14.00" fill="#666666">[text]</text>
<polygon fill="none" stroke="black" points="589.44,-453.6 589.44,-484.4 957.36,-484.4 957.36,-453.6 589.44,-453.6"/>
<text text-anchor="start" x="596.44" y="-465.8" font-family="Arial" font-size="14.00">example_order </text>
<text text-anchor="start" x="693.72" y="-465.8" font-family="Arial" font-size="14.00" fill="#666666">[smallint]</text>
<polygon fill="none" stroke="black" points="589.44,-422.8 589.44,-453.6 957.36,-453.6 957.36,-422.8 589.44,-422.8"/>
<text text-anchor="start" x="596.44" y="-435" font-family="Arial" font-size="14.00">is_selected </text>
<text text-anchor="start" x="670.37" y="-435" font-family="Arial" font-size="14.00" fill="#666666">[boolean]</text>
<polygon fill="none" stroke="black" points="589.44,-392 589.44,-422.8 957.36,-422.8 957.36,-392 589.44,-392"/>
<text text-anchor="start" x="596.44" y="-404.2" font-family="Arial" font-size="14.00">created_at </text>
<text text-anchor="start" x="666.49" y="-404.2" font-family="Arial" font-size="14.00" fill="#666666">[timestamp with time zone]</text>
</g>
<!-- public.story_creation_examples&#45;&gt;public.story_creation_sessions -->
<g id="edge2" class="edge">
<title>public.story_creation_examples:creation_session_id&#45;&gt;public.story_creation_sessions:id</title>
<path fill="none" stroke="black" d="M578.23,-529.91C510.66,-520.18 543.1,-410.51 589.44,-348.8 623.24,-303.78 676.97,-357.74 710.88,-312.8 736.9,-278.31 755.08,-215.6 711.88,-215.6"/>
<polygon fill="black" stroke="black" points="578.13,-529.9 587.8,-535.07 583.45,-530.26 587.77,-530.55 587.77,-530.55 587.77,-530.55 583.45,-530.26 588.41,-526.09 578.13,-529.9"/>
<text text-anchor="start" x="595.44" y="-540.6" font-family="Arial" font-size="10.00">FOREIGN KEY (creation_session_id) REFERENCES story_creation_sessions(id) ON DELETE CASCADE</text>
</g>
</g>
</svg>
