<?xml version="1.0" encoding="UTF-8" standalone="no"?>
<!DOCTYPE svg PUBLIC "-//W3C//DTD SVG 1.1//EN"
 "http://www.w3.org/Graphics/SVG/1.1/DTD/svg11.dtd">
<!-- Generated by graphviz version 12.1.2 (20240928.0832)
 -->
<!-- Title: public.story_creation_tags Pages: 1 -->
<svg width="737pt" height="664pt"
 viewBox="0.00 0.00 736.79 663.60" xmlns="http://www.w3.org/2000/svg" xmlns:xlink="http://www.w3.org/1999/xlink">
<g id="graph0" class="graph" transform="scale(1 1) rotate(0) translate(4 659.6)">
<title>public.story_creation_tags</title>
<polygon fill="white" stroke="none" points="-4,4 -4,-659.6 732.79,-659.6 732.79,4 -4,4"/>
<!-- public.story_creation_tags -->
<g id="node1" class="node">
<title>public.story_creation_tags</title>
<polygon fill="#efefef" stroke="none" points="73.7,-292.6 73.7,-328.2 402.64,-328.2 402.64,-292.6 73.7,-292.6"/>
<polygon fill="none" stroke="black" points="73.7,-292.6 73.7,-328.2 402.64,-328.2 402.64,-292.6 73.7,-292.6"/>
<text text-anchor="start" x="80.7" y="-306" font-family="Arial Bold" font-size="18.00">public.story_creation_tags</text>
<text text-anchor="start" x="271.15" y="-306" font-family="Arial" font-size="14.00">    </text>
<text text-anchor="start" x="302.27" y="-306" font-family="Arial" font-size="14.00" fill="#666666">[BASE TABLE]</text>
<polygon fill="none" stroke="black" points="73.7,-261.8 73.7,-292.6 402.64,-292.6 402.64,-261.8 73.7,-261.8"/>
<text text-anchor="start" x="80.7" y="-274" font-family="Arial" font-size="14.00">id </text>
<text text-anchor="start" x="95.49" y="-274" font-family="Arial" font-size="14.00" fill="#666666">[bigint]</text>
<polygon fill="none" stroke="black" points="73.7,-231 73.7,-261.8 402.64,-261.8 402.64,-231 73.7,-231"/>
<text text-anchor="start" x="80.7" y="-243.2" font-family="Arial" font-size="14.00">tag_type </text>
<text text-anchor="start" x="138.3" y="-243.2" font-family="Arial" font-size="14.00" fill="#666666">[varchar(50)]</text>
<polygon fill="none" stroke="black" points="73.7,-200.2 73.7,-231 402.64,-231 402.64,-200.2 73.7,-200.2"/>
<text text-anchor="start" x="80.7" y="-212.4" font-family="Arial" font-size="14.00">name </text>
<text text-anchor="start" x="119.61" y="-212.4" font-family="Arial" font-size="14.00" fill="#666666">[varchar(30)]</text>
<polygon fill="none" stroke="black" points="73.7,-169.4 73.7,-200.2 402.64,-200.2 402.64,-169.4 73.7,-169.4"/>
<text text-anchor="start" x="80.7" y="-181.6" font-family="Arial" font-size="14.00">tag_source </text>
<text text-anchor="start" x="153.86" y="-181.6" font-family="Arial" font-size="14.00" fill="#666666">[varchar(20)]</text>
<polygon fill="none" stroke="black" points="73.7,-138.6 73.7,-169.4 402.64,-169.4 402.64,-138.6 73.7,-138.6"/>
<text text-anchor="start" x="80.7" y="-150.8" font-family="Arial" font-size="14.00">sort_order </text>
<text text-anchor="start" x="148.4" y="-150.8" font-family="Arial" font-size="14.00" fill="#666666">[integer]</text>
<polygon fill="none" stroke="black" points="73.7,-107.8 73.7,-138.6 402.64,-138.6 402.64,-107.8 73.7,-107.8"/>
<text text-anchor="start" x="80.7" y="-120" font-family="Arial" font-size="14.00">is_active </text>
<text text-anchor="start" x="139.06" y="-120" font-family="Arial" font-size="14.00" fill="#666666">[boolean]</text>
<polygon fill="none" stroke="black" points="73.7,-77 73.7,-107.8 402.64,-107.8 402.64,-77 73.7,-77"/>
<text text-anchor="start" x="80.7" y="-89.2" font-family="Arial" font-size="14.00">created_at </text>
<text text-anchor="start" x="150.75" y="-89.2" font-family="Arial" font-size="14.00" fill="#666666">[timestamp with time zone]</text>
<polygon fill="none" stroke="black" points="73.7,-46.2 73.7,-77 402.64,-77 402.64,-46.2 73.7,-46.2"/>
<text text-anchor="start" x="80.7" y="-58.4" font-family="Arial" font-size="14.00">updated_at </text>
<text text-anchor="start" x="154.66" y="-58.4" font-family="Arial" font-size="14.00" fill="#666666">[timestamp with time zone]</text>
<polygon fill="none" stroke="black" stroke-width="3" points="72.2,-44.7 72.2,-329.7 404.14,-329.7 404.14,-44.7 72.2,-44.7"/>
</g>
<!-- public.story_creation_session_tags -->
<g id="node2" class="node">
<title>public.story_creation_session_tags</title>
<polygon fill="#efefef" stroke="none" points="43.2,-576.8 43.2,-612.4 433.14,-612.4 433.14,-576.8 43.2,-576.8"/>
<polygon fill="none" stroke="black" points="43.2,-576.8 43.2,-612.4 433.14,-612.4 433.14,-576.8 43.2,-576.8"/>
<text text-anchor="start" x="50.2" y="-590.2" font-family="Arial Bold" font-size="18.00">public.story_creation_session_tags</text>
<text text-anchor="start" x="301.66" y="-590.2" font-family="Arial" font-size="14.00">    </text>
<text text-anchor="start" x="332.77" y="-590.2" font-family="Arial" font-size="14.00" fill="#666666">[BASE TABLE]</text>
<polygon fill="none" stroke="black" points="43.2,-546 43.2,-576.8 433.14,-576.8 433.14,-546 43.2,-546"/>
<text text-anchor="start" x="50.2" y="-558.2" font-family="Arial" font-size="14.00">id </text>
<text text-anchor="start" x="64.99" y="-558.2" font-family="Arial" font-size="14.00" fill="#666666">[bigint]</text>
<polygon fill="none" stroke="black" points="43.2,-515.2 43.2,-546 433.14,-546 433.14,-515.2 43.2,-515.2"/>
<text text-anchor="start" x="50.2" y="-527.4" font-family="Arial" font-size="14.00">creation_session_id </text>
<text text-anchor="start" x="177.83" y="-527.4" font-family="Arial" font-size="14.00" fill="#666666">[bigint]</text>
<polygon fill="none" stroke="black" points="43.2,-484.4 43.2,-515.2 433.14,-515.2 433.14,-484.4 43.2,-484.4"/>
<text text-anchor="start" x="50.2" y="-496.6" font-family="Arial" font-size="14.00">tag_id </text>
<text text-anchor="start" x="92.23" y="-496.6" font-family="Arial" font-size="14.00" fill="#666666">[bigint]</text>
<polygon fill="none" stroke="black" points="43.2,-453.6 43.2,-484.4 433.14,-484.4 433.14,-453.6 43.2,-453.6"/>
<text text-anchor="start" x="50.2" y="-465.8" font-family="Arial" font-size="14.00">created_at </text>
<text text-anchor="start" x="120.25" y="-465.8" font-family="Arial" font-size="14.00" fill="#666666">[timestamp with time zone]</text>
</g>
<!-- public.story_creation_session_tags&#45;&gt;public.story_creation_tags -->
<g id="edge1" class="edge">
<title>public.story_creation_session_tags:tag_id&#45;&gt;public.story_creation_tags:id</title>
<path fill="none" stroke="black" d="M444.46,-498.95C531.71,-484 499.89,-277.2 403.64,-277.2"/>
<polygon fill="black" stroke="black" points="444.44,-498.95 434.11,-495.29 439.13,-499.39 434.81,-499.75 434.81,-499.75 434.81,-499.75 439.13,-499.39 434.85,-504.26 444.44,-498.95"/>
<text text-anchor="start" x="441.14" y="-509.8" font-family="Arial" font-size="10.00">FOREIGN KEY (tag_id) REFERENCES story_creation_tags(id)</text>
</g>
</g>
</svg>
