<?xml version="1.0" encoding="UTF-8" standalone="no"?>
<!DOCTYPE svg PUBLIC "-//W3C//DTD SVG 1.1//EN"
 "http://www.w3.org/Graphics/SVG/1.1/DTD/svg11.dtd">
<!-- Generated by graphviz version 12.1.2 (20240928.0832)
 -->
<!-- Title: public.story_play_sessions Pages: 1 -->
<svg width="1142pt" height="1376pt"
 viewBox="0.00 0.00 1141.84 1376.00" xmlns="http://www.w3.org/2000/svg" xmlns:xlink="http://www.w3.org/1999/xlink">
<g id="graph0" class="graph" transform="scale(1 1) rotate(0) translate(4 1372)">
<title>public.story_play_sessions</title>
<polygon fill="white" stroke="none" points="-4,4 -4,-1372 1137.84,-1372 1137.84,4 -4,4"/>
<!-- public.story_play_sessions -->
<g id="node1" class="node">
<title>public.story_play_sessions</title>
<polygon fill="#efefef" stroke="none" points="356.18,-881.8 356.18,-917.4 688.16,-917.4 688.16,-881.8 356.18,-881.8"/>
<polygon fill="none" stroke="black" points="356.18,-881.8 356.18,-917.4 688.16,-917.4 688.16,-881.8 356.18,-881.8"/>
<text text-anchor="start" x="363.18" y="-895.2" font-family="Arial Bold" font-size="18.00">public.story_play_sessions</text>
<text text-anchor="start" x="556.67" y="-895.2" font-family="Arial" font-size="14.00">    </text>
<text text-anchor="start" x="587.79" y="-895.2" font-family="Arial" font-size="14.00" fill="#666666">[BASE TABLE]</text>
<polygon fill="none" stroke="black" points="356.18,-851 356.18,-881.8 688.16,-881.8 688.16,-851 356.18,-851"/>
<text text-anchor="start" x="363.18" y="-863.2" font-family="Arial" font-size="14.00">id </text>
<text text-anchor="start" x="377.96" y="-863.2" font-family="Arial" font-size="14.00" fill="#666666">[bigint]</text>
<polygon fill="none" stroke="black" points="356.18,-820.2 356.18,-851 688.16,-851 688.16,-820.2 356.18,-820.2"/>
<text text-anchor="start" x="363.18" y="-832.4" font-family="Arial" font-size="14.00">user_id </text>
<text text-anchor="start" x="412.98" y="-832.4" font-family="Arial" font-size="14.00" fill="#666666">[bigint]</text>
<polygon fill="none" stroke="black" points="356.18,-789.4 356.18,-820.2 688.16,-820.2 688.16,-789.4 356.18,-789.4"/>
<text text-anchor="start" x="363.18" y="-801.6" font-family="Arial" font-size="14.00">story_id </text>
<text text-anchor="start" x="416.09" y="-801.6" font-family="Arial" font-size="14.00" fill="#666666">[bigint]</text>
<polygon fill="none" stroke="black" points="356.18,-758.6 356.18,-789.4 688.16,-789.4 688.16,-758.6 356.18,-758.6"/>
<text text-anchor="start" x="363.18" y="-770.8" font-family="Arial" font-size="14.00">start_setting_id </text>
<text text-anchor="start" x="462.01" y="-770.8" font-family="Arial" font-size="14.00" fill="#666666">[bigint]</text>
<polygon fill="none" stroke="black" points="356.18,-727.8 356.18,-758.6 688.16,-758.6 688.16,-727.8 356.18,-727.8"/>
<text text-anchor="start" x="363.18" y="-740" font-family="Arial" font-size="14.00">title </text>
<text text-anchor="start" x="388.85" y="-740" font-family="Arial" font-size="14.00" fill="#666666">[varchar(100)]</text>
<polygon fill="none" stroke="black" points="356.18,-697 356.18,-727.8 688.16,-727.8 688.16,-697 356.18,-697"/>
<text text-anchor="start" x="363.18" y="-709.2" font-family="Arial" font-size="14.00">summary </text>
<text text-anchor="start" x="424.62" y="-709.2" font-family="Arial" font-size="14.00" fill="#666666">[text]</text>
<polygon fill="none" stroke="black" points="356.18,-666.2 356.18,-697 688.16,-697 688.16,-666.2 356.18,-666.2"/>
<text text-anchor="start" x="363.18" y="-678.4" font-family="Arial" font-size="14.00">current_turn </text>
<text text-anchor="start" x="442.55" y="-678.4" font-family="Arial" font-size="14.00" fill="#666666">[integer]</text>
<polygon fill="none" stroke="black" points="356.18,-635.4 356.18,-666.2 688.16,-666.2 688.16,-635.4 356.18,-635.4"/>
<text text-anchor="start" x="363.18" y="-647.6" font-family="Arial" font-size="14.00">status </text>
<text text-anchor="start" x="404.42" y="-647.6" font-family="Arial" font-size="14.00" fill="#666666">[varchar(20)]</text>
<polygon fill="none" stroke="black" points="356.18,-604.6 356.18,-635.4 688.16,-635.4 688.16,-604.6 356.18,-604.6"/>
<text text-anchor="start" x="363.18" y="-616.8" font-family="Arial" font-size="14.00">created_at </text>
<text text-anchor="start" x="433.22" y="-616.8" font-family="Arial" font-size="14.00" fill="#666666">[timestamp with time zone]</text>
<polygon fill="none" stroke="black" points="356.18,-573.8 356.18,-604.6 688.16,-604.6 688.16,-573.8 356.18,-573.8"/>
<text text-anchor="start" x="363.18" y="-586" font-family="Arial" font-size="14.00">updated_at </text>
<text text-anchor="start" x="437.13" y="-586" font-family="Arial" font-size="14.00" fill="#666666">[timestamp with time zone]</text>
<polygon fill="none" stroke="black" points="356.18,-543 356.18,-573.8 688.16,-573.8 688.16,-543 356.18,-543"/>
<text text-anchor="start" x="363.18" y="-555.2" font-family="Arial" font-size="14.00">deleted_at </text>
<text text-anchor="start" x="432.46" y="-555.2" font-family="Arial" font-size="14.00" fill="#666666">[timestamp with time zone]</text>
<polygon fill="none" stroke="black" points="356.18,-512.2 356.18,-543 688.16,-543 688.16,-512.2 356.18,-512.2"/>
<text text-anchor="start" x="363.18" y="-524.4" font-family="Arial" font-size="14.00">public_id </text>
<text text-anchor="start" x="422.33" y="-524.4" font-family="Arial" font-size="14.00" fill="#666666">[uuid]</text>
<polygon fill="none" stroke="black" stroke-width="3" points="354.68,-510.7 354.68,-918.9 689.66,-918.9 689.66,-510.7 354.68,-510.7"/>
</g>
<!-- public.stories -->
<g id="node4" class="node">
<title>public.stories</title>
<polygon fill="#efefef" stroke="none" points="198.33,-351.2 198.33,-386.8 452.01,-386.8 452.01,-351.2 198.33,-351.2"/>
<polygon fill="none" stroke="black" points="198.33,-351.2 198.33,-386.8 452.01,-386.8 452.01,-351.2 198.33,-351.2"/>
<text text-anchor="start" x="214.68" y="-364.6" font-family="Arial Bold" font-size="18.00">public.stories</text>
<text text-anchor="start" x="311.17" y="-364.6" font-family="Arial" font-size="14.00">    </text>
<text text-anchor="start" x="342.28" y="-364.6" font-family="Arial" font-size="14.00" fill="#666666">[BASE TABLE]</text>
<polygon fill="none" stroke="black" points="198.33,-320.4 198.33,-351.2 452.01,-351.2 452.01,-320.4 198.33,-320.4"/>
<text text-anchor="start" x="205.33" y="-332.6" font-family="Arial" font-size="14.00">id </text>
<text text-anchor="start" x="220.11" y="-332.6" font-family="Arial" font-size="14.00" fill="#666666">[bigint]</text>
<polygon fill="none" stroke="black" points="198.33,-289.6 198.33,-320.4 452.01,-320.4 452.01,-289.6 198.33,-289.6"/>
<text text-anchor="start" x="205.33" y="-301.8" font-family="Arial" font-size="14.00">user_id </text>
<text text-anchor="start" x="255.13" y="-301.8" font-family="Arial" font-size="14.00" fill="#666666">[bigint]</text>
<polygon fill="none" stroke="black" points="198.33,-258.8 198.33,-289.6 452.01,-289.6 452.01,-258.8 198.33,-258.8"/>
<text text-anchor="start" x="205.33" y="-271" font-family="Arial" font-size="14.00">title </text>
<text text-anchor="start" x="231" y="-271" font-family="Arial" font-size="14.00" fill="#666666">[varchar(100)]</text>
<polygon fill="none" stroke="black" points="198.33,-228 198.33,-258.8 452.01,-258.8 452.01,-228 198.33,-228"/>
<text text-anchor="start" x="205.33" y="-240.2" font-family="Arial" font-size="14.00">one_line_intro </text>
<text text-anchor="start" x="297.17" y="-240.2" font-family="Arial" font-size="14.00" fill="#666666">[varchar(255)]</text>
<polygon fill="none" stroke="black" points="198.33,-197.2 198.33,-228 452.01,-228 452.01,-197.2 198.33,-197.2"/>
<text text-anchor="start" x="205.33" y="-209.4" font-family="Arial" font-size="14.00">description </text>
<text text-anchor="start" x="276.92" y="-209.4" font-family="Arial" font-size="14.00" fill="#666666">[text]</text>
<polygon fill="none" stroke="black" points="198.33,-166.4 198.33,-197.2 452.01,-197.2 452.01,-166.4 198.33,-166.4"/>
<text text-anchor="start" x="205.33" y="-178.6" font-family="Arial" font-size="14.00">genre </text>
<text text-anchor="start" x="245.02" y="-178.6" font-family="Arial" font-size="14.00" fill="#666666">[varchar(255)]</text>
<polygon fill="none" stroke="black" points="198.33,-135.6 198.33,-166.4 452.01,-166.4 452.01,-135.6 198.33,-135.6"/>
<text text-anchor="start" x="205.33" y="-147.8" font-family="Arial" font-size="14.00">created_at </text>
<text text-anchor="start" x="275.37" y="-147.8" font-family="Arial" font-size="14.00" fill="#666666">[timestamp with time zone]</text>
<polygon fill="none" stroke="black" points="198.33,-104.8 198.33,-135.6 452.01,-135.6 452.01,-104.8 198.33,-104.8"/>
<text text-anchor="start" x="205.33" y="-117" font-family="Arial" font-size="14.00">updated_at </text>
<text text-anchor="start" x="279.28" y="-117" font-family="Arial" font-size="14.00" fill="#666666">[timestamp with time zone]</text>
<polygon fill="none" stroke="black" points="198.33,-74 198.33,-104.8 452.01,-104.8 452.01,-74 198.33,-74"/>
<text text-anchor="start" x="205.33" y="-86.2" font-family="Arial" font-size="14.00">deleted_at </text>
<text text-anchor="start" x="274.61" y="-86.2" font-family="Arial" font-size="14.00" fill="#666666">[timestamp with time zone]</text>
<polygon fill="none" stroke="black" points="198.33,-43.2 198.33,-74 452.01,-74 452.01,-43.2 198.33,-43.2"/>
<text text-anchor="start" x="205.33" y="-55.4" font-family="Arial" font-size="14.00">public_id </text>
<text text-anchor="start" x="264.48" y="-55.4" font-family="Arial" font-size="14.00" fill="#666666">[uuid]</text>
</g>
<!-- public.story_play_sessions&#45;&gt;public.stories -->
<g id="edge3" class="edge">
<title>public.story_play_sessions:story_id&#45;&gt;public.stories:id</title>
<path fill="none" stroke="black" d="M344.94,-804.45C207.69,-794.77 272.27,-586.76 356.18,-466 382.14,-428.64 425.91,-467.27 452.01,-430 476.03,-395.71 494.88,-335.8 453.01,-335.8"/>
<polygon fill="black" stroke="black" points="344.85,-804.45 354.69,-809.29 350.18,-804.63 354.51,-804.78 354.51,-804.78 354.51,-804.78 350.18,-804.63 355,-800.29 344.85,-804.45"/>
<text text-anchor="start" x="7" y="-814.8" font-family="Arial" font-size="10.00">FOREIGN KEY (story_id) REFERENCES stories(id) ON DELETE CASCADE</text>
</g>
<!-- public.story_start_settings -->
<g id="node5" class="node">
<title>public.story_start_settings</title>
<polygon fill="#efefef" stroke="none" points="556.18,-305 556.18,-340.6 884.15,-340.6 884.15,-305 556.18,-305"/>
<polygon fill="none" stroke="black" points="556.18,-305 556.18,-340.6 884.15,-340.6 884.15,-305 556.18,-305"/>
<text text-anchor="start" x="563.18" y="-318.4" font-family="Arial Bold" font-size="18.00">public.story_start_settings</text>
<text text-anchor="start" x="752.66" y="-318.4" font-family="Arial" font-size="14.00">    </text>
<text text-anchor="start" x="783.78" y="-318.4" font-family="Arial" font-size="14.00" fill="#666666">[BASE TABLE]</text>
<polygon fill="none" stroke="black" points="556.18,-274.2 556.18,-305 884.15,-305 884.15,-274.2 556.18,-274.2"/>
<text text-anchor="start" x="563.18" y="-286.4" font-family="Arial" font-size="14.00">id </text>
<text text-anchor="start" x="577.97" y="-286.4" font-family="Arial" font-size="14.00" fill="#666666">[bigint]</text>
<polygon fill="none" stroke="black" points="556.18,-243.4 556.18,-274.2 884.15,-274.2 884.15,-243.4 556.18,-243.4"/>
<text text-anchor="start" x="563.18" y="-255.6" font-family="Arial" font-size="14.00">story_id </text>
<text text-anchor="start" x="616.09" y="-255.6" font-family="Arial" font-size="14.00" fill="#666666">[bigint]</text>
<polygon fill="none" stroke="black" points="556.18,-212.6 556.18,-243.4 884.15,-243.4 884.15,-212.6 556.18,-212.6"/>
<text text-anchor="start" x="563.18" y="-224.8" font-family="Arial" font-size="14.00">name </text>
<text text-anchor="start" x="602.09" y="-224.8" font-family="Arial" font-size="14.00" fill="#666666">[varchar(100)]</text>
<polygon fill="none" stroke="black" points="556.18,-181.8 556.18,-212.6 884.15,-212.6 884.15,-181.8 556.18,-181.8"/>
<text text-anchor="start" x="563.18" y="-194" font-family="Arial" font-size="14.00">prologue </text>
<text text-anchor="start" x="621.56" y="-194" font-family="Arial" font-size="14.00" fill="#666666">[text]</text>
<polygon fill="none" stroke="black" points="556.18,-151 556.18,-181.8 884.15,-181.8 884.15,-151 556.18,-151"/>
<text text-anchor="start" x="563.18" y="-163.2" font-family="Arial" font-size="14.00">start_situation </text>
<text text-anchor="start" x="654.23" y="-163.2" font-family="Arial" font-size="14.00" fill="#666666">[text]</text>
<polygon fill="none" stroke="black" points="556.18,-120.2 556.18,-151 884.15,-151 884.15,-120.2 556.18,-120.2"/>
<text text-anchor="start" x="563.18" y="-132.4" font-family="Arial" font-size="14.00">created_at </text>
<text text-anchor="start" x="633.23" y="-132.4" font-family="Arial" font-size="14.00" fill="#666666">[timestamp with time zone]</text>
<polygon fill="none" stroke="black" points="556.18,-89.4 556.18,-120.2 884.15,-120.2 884.15,-89.4 556.18,-89.4"/>
<text text-anchor="start" x="563.18" y="-101.6" font-family="Arial" font-size="14.00">updated_at </text>
<text text-anchor="start" x="637.14" y="-101.6" font-family="Arial" font-size="14.00" fill="#666666">[timestamp with time zone]</text>
</g>
<!-- public.story_play_sessions&#45;&gt;public.story_start_settings -->
<g id="edge4" class="edge">
<title>public.story_play_sessions:start_setting_id&#45;&gt;public.story_start_settings:id</title>
<path fill="none" stroke="black" d="M699.56,-773.61C822.29,-764.11 753.05,-582.42 688.16,-466 654.51,-405.64 590.05,-444.04 556.18,-383.8 535.66,-347.3 513.31,-289.6 555.18,-289.6"/>
<polygon fill="black" stroke="black" points="699.48,-773.61 689.32,-769.49 694.15,-773.81 689.83,-773.98 689.83,-773.98 689.83,-773.98 694.15,-773.81 689.66,-778.48 699.48,-773.61"/>
<text text-anchor="start" x="696.16" y="-784" font-family="Arial" font-size="10.00">FOREIGN KEY (start_setting_id) REFERENCES story_start_settings(id) ON DELETE SET NULL</text>
</g>
<!-- public.story_messages -->
<g id="node2" class="node">
<title>public.story_messages</title>
<polygon fill="#efefef" stroke="none" points="172.69,-1258.4 172.69,-1294 473.65,-1294 473.65,-1258.4 172.69,-1258.4"/>
<polygon fill="none" stroke="black" points="172.69,-1258.4 172.69,-1294 473.65,-1294 473.65,-1258.4 172.69,-1258.4"/>
<text text-anchor="start" x="179.69" y="-1271.8" font-family="Arial Bold" font-size="18.00">public.story_messages</text>
<text text-anchor="start" x="342.16" y="-1271.8" font-family="Arial" font-size="14.00">    </text>
<text text-anchor="start" x="373.28" y="-1271.8" font-family="Arial" font-size="14.00" fill="#666666">[BASE TABLE]</text>
<polygon fill="none" stroke="black" points="172.69,-1227.6 172.69,-1258.4 473.65,-1258.4 473.65,-1227.6 172.69,-1227.6"/>
<text text-anchor="start" x="179.69" y="-1239.8" font-family="Arial" font-size="14.00">id </text>
<text text-anchor="start" x="194.47" y="-1239.8" font-family="Arial" font-size="14.00" fill="#666666">[bigint]</text>
<polygon fill="none" stroke="black" points="172.69,-1196.8 172.69,-1227.6 473.65,-1227.6 473.65,-1196.8 172.69,-1196.8"/>
<text text-anchor="start" x="179.69" y="-1209" font-family="Arial" font-size="14.00">play_session_id </text>
<text text-anchor="start" x="283.19" y="-1209" font-family="Arial" font-size="14.00" fill="#666666">[bigint]</text>
<polygon fill="none" stroke="black" points="172.69,-1166 172.69,-1196.8 473.65,-1196.8 473.65,-1166 172.69,-1166"/>
<text text-anchor="start" x="179.69" y="-1178.2" font-family="Arial" font-size="14.00">role </text>
<text text-anchor="start" x="206.92" y="-1178.2" font-family="Arial" font-size="14.00" fill="#666666">[varchar(16)]</text>
<polygon fill="none" stroke="black" points="172.69,-1135.2 172.69,-1166 473.65,-1166 473.65,-1135.2 172.69,-1135.2"/>
<text text-anchor="start" x="179.69" y="-1147.4" font-family="Arial" font-size="14.00">content </text>
<text text-anchor="start" x="229.5" y="-1147.4" font-family="Arial" font-size="14.00" fill="#666666">[text]</text>
<polygon fill="none" stroke="black" points="172.69,-1104.4 172.69,-1135.2 473.65,-1135.2 473.65,-1104.4 172.69,-1104.4"/>
<text text-anchor="start" x="179.69" y="-1116.6" font-family="Arial" font-size="14.00">message_order </text>
<text text-anchor="start" x="280.85" y="-1116.6" font-family="Arial" font-size="14.00" fill="#666666">[integer]</text>
<polygon fill="none" stroke="black" points="172.69,-1073.6 172.69,-1104.4 473.65,-1104.4 473.65,-1073.6 172.69,-1073.6"/>
<text text-anchor="start" x="179.69" y="-1085.8" font-family="Arial" font-size="14.00">created_at </text>
<text text-anchor="start" x="249.73" y="-1085.8" font-family="Arial" font-size="14.00" fill="#666666">[timestamp with time zone]</text>
</g>
<!-- public.story_messages&#45;&gt;public.story_play_sessions -->
<g id="edge1" class="edge">
<title>public.story_messages:play_session_id&#45;&gt;public.story_play_sessions:id</title>
<path fill="none" stroke="black" d="M484.81,-1211.54C551.77,-1202.22 512.64,-1097 473.65,-1030.4 443.31,-978.57 386.64,-1015.36 356.18,-963.6 334.26,-926.37 311.97,-866.4 355.18,-866.4"/>
<polygon fill="black" stroke="black" points="484.96,-1211.53 474.69,-1207.69 479.64,-1211.87 475.32,-1212.16 475.32,-1212.16 475.32,-1212.16 479.64,-1211.87 475.28,-1216.67 484.96,-1211.53"/>
<text text-anchor="start" x="29.74" y="-1222.2" font-family="Arial" font-size="10.00">FOREIGN KEY (play_session_id) REFERENCES story_play_sessions(id) ON DELETE CASCADE</text>
</g>
<!-- public.story_choices -->
<g id="node3" class="node">
<title>public.story_choices</title>
<polygon fill="#efefef" stroke="none" points="577.69,-1289.2 577.69,-1324.8 864.64,-1324.8 864.64,-1289.2 577.69,-1289.2"/>
<polygon fill="none" stroke="black" points="577.69,-1289.2 577.69,-1324.8 864.64,-1324.8 864.64,-1289.2 577.69,-1289.2"/>
<text text-anchor="start" x="584.69" y="-1302.6" font-family="Arial Bold" font-size="18.00">public.story_choices</text>
<text text-anchor="start" x="733.15" y="-1302.6" font-family="Arial" font-size="14.00">    </text>
<text text-anchor="start" x="764.27" y="-1302.6" font-family="Arial" font-size="14.00" fill="#666666">[BASE TABLE]</text>
<polygon fill="none" stroke="black" points="577.69,-1258.4 577.69,-1289.2 864.64,-1289.2 864.64,-1258.4 577.69,-1258.4"/>
<text text-anchor="start" x="584.69" y="-1270.6" font-family="Arial" font-size="14.00">id </text>
<text text-anchor="start" x="599.48" y="-1270.6" font-family="Arial" font-size="14.00" fill="#666666">[bigint]</text>
<polygon fill="none" stroke="black" points="577.69,-1227.6 577.69,-1258.4 864.64,-1258.4 864.64,-1227.6 577.69,-1227.6"/>
<text text-anchor="start" x="584.69" y="-1239.8" font-family="Arial" font-size="14.00">play_session_id </text>
<text text-anchor="start" x="688.2" y="-1239.8" font-family="Arial" font-size="14.00" fill="#666666">[bigint]</text>
<polygon fill="none" stroke="black" points="577.69,-1196.8 577.69,-1227.6 864.64,-1227.6 864.64,-1196.8 577.69,-1196.8"/>
<text text-anchor="start" x="584.69" y="-1209" font-family="Arial" font-size="14.00">message_id </text>
<text text-anchor="start" x="664.07" y="-1209" font-family="Arial" font-size="14.00" fill="#666666">[bigint]</text>
<polygon fill="none" stroke="black" points="577.69,-1166 577.69,-1196.8 864.64,-1196.8 864.64,-1166 577.69,-1166"/>
<text text-anchor="start" x="584.69" y="-1178.2" font-family="Arial" font-size="14.00">choice_text </text>
<text text-anchor="start" x="659.4" y="-1178.2" font-family="Arial" font-size="14.00" fill="#666666">[text]</text>
<polygon fill="none" stroke="black" points="577.69,-1135.2 577.69,-1166 864.64,-1166 864.64,-1135.2 577.69,-1135.2"/>
<text text-anchor="start" x="584.69" y="-1147.4" font-family="Arial" font-size="14.00">choice_order </text>
<text text-anchor="start" x="669.52" y="-1147.4" font-family="Arial" font-size="14.00" fill="#666666">[smallint]</text>
<polygon fill="none" stroke="black" points="577.69,-1104.4 577.69,-1135.2 864.64,-1135.2 864.64,-1104.4 577.69,-1104.4"/>
<text text-anchor="start" x="584.69" y="-1116.6" font-family="Arial" font-size="14.00">is_selected </text>
<text text-anchor="start" x="658.62" y="-1116.6" font-family="Arial" font-size="14.00" fill="#666666">[boolean]</text>
<polygon fill="none" stroke="black" points="577.69,-1073.6 577.69,-1104.4 864.64,-1104.4 864.64,-1073.6 577.69,-1073.6"/>
<text text-anchor="start" x="584.69" y="-1085.8" font-family="Arial" font-size="14.00">selected_at </text>
<text text-anchor="start" x="660.19" y="-1085.8" font-family="Arial" font-size="14.00" fill="#666666">[timestamp with time zone]</text>
<polygon fill="none" stroke="black" points="577.69,-1042.8 577.69,-1073.6 864.64,-1073.6 864.64,-1042.8 577.69,-1042.8"/>
<text text-anchor="start" x="584.69" y="-1055" font-family="Arial" font-size="14.00">created_at </text>
<text text-anchor="start" x="654.74" y="-1055" font-family="Arial" font-size="14.00" fill="#666666">[timestamp with time zone]</text>
</g>
<!-- public.story_choices&#45;&gt;public.story_play_sessions -->
<g id="edge2" class="edge">
<title>public.story_choices:play_session_id&#45;&gt;public.story_play_sessions:id</title>
<path fill="none" stroke="black" d="M566.66,-1240.31C525.82,-1216.43 548,-1040.32 577.69,-999.6 608.11,-957.87 657.61,-1005.23 688.16,-963.6 713.72,-928.77 732.36,-866.4 689.16,-866.4"/>
<polygon fill="black" stroke="black" points="566.71,-1240.33 575.2,-1247.26 571.86,-1241.71 576.04,-1242.83 576.04,-1242.83 576.04,-1242.83 571.86,-1241.71 577.53,-1238.57 566.71,-1240.33"/>
<text text-anchor="start" x="583.69" y="-1253" font-family="Arial" font-size="10.00">FOREIGN KEY (play_session_id) REFERENCES story_play_sessions(id) ON DELETE CASCADE</text>
</g>
</g>
</svg>
