<?xml version="1.0" encoding="UTF-8" standalone="no"?>
<!DOCTYPE svg PUBLIC "-//W3C//DTD SVG 1.1//EN"
 "http://www.w3.org/Graphics/SVG/1.1/DTD/svg11.dtd">
<!-- Generated by graphviz version 12.1.2 (20240928.0832)
 -->
<!-- Title: public.story_choices Pages: 1 -->
<svg width="1166pt" height="910pt"
 viewBox="0.00 0.00 1166.30 910.00" xmlns="http://www.w3.org/2000/svg" xmlns:xlink="http://www.w3.org/1999/xlink">
<g id="graph0" class="graph" transform="scale(1 1) rotate(0) translate(4 906)">
<title>public.story_choices</title>
<polygon fill="white" stroke="none" points="-4,4 -4,-906 1162.3,-906 1162.3,4 -4,4"/>
<!-- public.story_choices -->
<g id="node1" class="node">
<title>public.story_choices</title>
<polygon fill="#efefef" stroke="none" points="452.91,-820.2 452.91,-855.8 739.86,-855.8 739.86,-820.2 452.91,-820.2"/>
<polygon fill="none" stroke="black" points="452.91,-820.2 452.91,-855.8 739.86,-855.8 739.86,-820.2 452.91,-820.2"/>
<text text-anchor="start" x="459.91" y="-833.6" font-family="Arial Bold" font-size="18.00">public.story_choices</text>
<text text-anchor="start" x="608.38" y="-833.6" font-family="Arial" font-size="14.00">    </text>
<text text-anchor="start" x="639.49" y="-833.6" font-family="Arial" font-size="14.00" fill="#666666">[BASE TABLE]</text>
<polygon fill="none" stroke="black" points="452.91,-789.4 452.91,-820.2 739.86,-820.2 739.86,-789.4 452.91,-789.4"/>
<text text-anchor="start" x="459.91" y="-801.6" font-family="Arial" font-size="14.00">id </text>
<text text-anchor="start" x="474.7" y="-801.6" font-family="Arial" font-size="14.00" fill="#666666">[bigint]</text>
<polygon fill="none" stroke="black" points="452.91,-758.6 452.91,-789.4 739.86,-789.4 739.86,-758.6 452.91,-758.6"/>
<text text-anchor="start" x="459.91" y="-770.8" font-family="Arial" font-size="14.00">play_session_id </text>
<text text-anchor="start" x="563.42" y="-770.8" font-family="Arial" font-size="14.00" fill="#666666">[bigint]</text>
<polygon fill="none" stroke="black" points="452.91,-727.8 452.91,-758.6 739.86,-758.6 739.86,-727.8 452.91,-727.8"/>
<text text-anchor="start" x="459.91" y="-740" font-family="Arial" font-size="14.00">message_id </text>
<text text-anchor="start" x="539.29" y="-740" font-family="Arial" font-size="14.00" fill="#666666">[bigint]</text>
<polygon fill="none" stroke="black" points="452.91,-697 452.91,-727.8 739.86,-727.8 739.86,-697 452.91,-697"/>
<text text-anchor="start" x="459.91" y="-709.2" font-family="Arial" font-size="14.00">choice_text </text>
<text text-anchor="start" x="534.62" y="-709.2" font-family="Arial" font-size="14.00" fill="#666666">[text]</text>
<polygon fill="none" stroke="black" points="452.91,-666.2 452.91,-697 739.86,-697 739.86,-666.2 452.91,-666.2"/>
<text text-anchor="start" x="459.91" y="-678.4" font-family="Arial" font-size="14.00">choice_order </text>
<text text-anchor="start" x="544.74" y="-678.4" font-family="Arial" font-size="14.00" fill="#666666">[smallint]</text>
<polygon fill="none" stroke="black" points="452.91,-635.4 452.91,-666.2 739.86,-666.2 739.86,-635.4 452.91,-635.4"/>
<text text-anchor="start" x="459.91" y="-647.6" font-family="Arial" font-size="14.00">is_selected </text>
<text text-anchor="start" x="533.84" y="-647.6" font-family="Arial" font-size="14.00" fill="#666666">[boolean]</text>
<polygon fill="none" stroke="black" points="452.91,-604.6 452.91,-635.4 739.86,-635.4 739.86,-604.6 452.91,-604.6"/>
<text text-anchor="start" x="459.91" y="-616.8" font-family="Arial" font-size="14.00">selected_at </text>
<text text-anchor="start" x="535.41" y="-616.8" font-family="Arial" font-size="14.00" fill="#666666">[timestamp with time zone]</text>
<polygon fill="none" stroke="black" points="452.91,-573.8 452.91,-604.6 739.86,-604.6 739.86,-573.8 452.91,-573.8"/>
<text text-anchor="start" x="459.91" y="-586" font-family="Arial" font-size="14.00">created_at </text>
<text text-anchor="start" x="529.96" y="-586" font-family="Arial" font-size="14.00" fill="#666666">[timestamp with time zone]</text>
<polygon fill="none" stroke="black" stroke-width="3" points="451.41,-572.3 451.41,-857.3 741.36,-857.3 741.36,-572.3 451.41,-572.3"/>
</g>
<!-- public.story_play_sessions -->
<g id="node2" class="node">
<title>public.story_play_sessions</title>
<polygon fill="#efefef" stroke="none" points="220.4,-412.8 220.4,-448.4 552.38,-448.4 552.38,-412.8 220.4,-412.8"/>
<polygon fill="none" stroke="black" points="220.4,-412.8 220.4,-448.4 552.38,-448.4 552.38,-412.8 220.4,-412.8"/>
<text text-anchor="start" x="227.4" y="-426.2" font-family="Arial Bold" font-size="18.00">public.story_play_sessions</text>
<text text-anchor="start" x="420.89" y="-426.2" font-family="Arial" font-size="14.00">    </text>
<text text-anchor="start" x="452.01" y="-426.2" font-family="Arial" font-size="14.00" fill="#666666">[BASE TABLE]</text>
<polygon fill="none" stroke="black" points="220.4,-382 220.4,-412.8 552.38,-412.8 552.38,-382 220.4,-382"/>
<text text-anchor="start" x="227.4" y="-394.2" font-family="Arial" font-size="14.00">id </text>
<text text-anchor="start" x="242.18" y="-394.2" font-family="Arial" font-size="14.00" fill="#666666">[bigint]</text>
<polygon fill="none" stroke="black" points="220.4,-351.2 220.4,-382 552.38,-382 552.38,-351.2 220.4,-351.2"/>
<text text-anchor="start" x="227.4" y="-363.4" font-family="Arial" font-size="14.00">user_id </text>
<text text-anchor="start" x="277.2" y="-363.4" font-family="Arial" font-size="14.00" fill="#666666">[bigint]</text>
<polygon fill="none" stroke="black" points="220.4,-320.4 220.4,-351.2 552.38,-351.2 552.38,-320.4 220.4,-320.4"/>
<text text-anchor="start" x="227.4" y="-332.6" font-family="Arial" font-size="14.00">story_id </text>
<text text-anchor="start" x="280.31" y="-332.6" font-family="Arial" font-size="14.00" fill="#666666">[bigint]</text>
<polygon fill="none" stroke="black" points="220.4,-289.6 220.4,-320.4 552.38,-320.4 552.38,-289.6 220.4,-289.6"/>
<text text-anchor="start" x="227.4" y="-301.8" font-family="Arial" font-size="14.00">start_setting_id </text>
<text text-anchor="start" x="326.23" y="-301.8" font-family="Arial" font-size="14.00" fill="#666666">[bigint]</text>
<polygon fill="none" stroke="black" points="220.4,-258.8 220.4,-289.6 552.38,-289.6 552.38,-258.8 220.4,-258.8"/>
<text text-anchor="start" x="227.4" y="-271" font-family="Arial" font-size="14.00">title </text>
<text text-anchor="start" x="253.07" y="-271" font-family="Arial" font-size="14.00" fill="#666666">[varchar(100)]</text>
<polygon fill="none" stroke="black" points="220.4,-228 220.4,-258.8 552.38,-258.8 552.38,-228 220.4,-228"/>
<text text-anchor="start" x="227.4" y="-240.2" font-family="Arial" font-size="14.00">summary </text>
<text text-anchor="start" x="288.85" y="-240.2" font-family="Arial" font-size="14.00" fill="#666666">[text]</text>
<polygon fill="none" stroke="black" points="220.4,-197.2 220.4,-228 552.38,-228 552.38,-197.2 220.4,-197.2"/>
<text text-anchor="start" x="227.4" y="-209.4" font-family="Arial" font-size="14.00">current_turn </text>
<text text-anchor="start" x="306.77" y="-209.4" font-family="Arial" font-size="14.00" fill="#666666">[integer]</text>
<polygon fill="none" stroke="black" points="220.4,-166.4 220.4,-197.2 552.38,-197.2 552.38,-166.4 220.4,-166.4"/>
<text text-anchor="start" x="227.4" y="-178.6" font-family="Arial" font-size="14.00">status </text>
<text text-anchor="start" x="268.64" y="-178.6" font-family="Arial" font-size="14.00" fill="#666666">[varchar(20)]</text>
<polygon fill="none" stroke="black" points="220.4,-135.6 220.4,-166.4 552.38,-166.4 552.38,-135.6 220.4,-135.6"/>
<text text-anchor="start" x="227.4" y="-147.8" font-family="Arial" font-size="14.00">created_at </text>
<text text-anchor="start" x="297.44" y="-147.8" font-family="Arial" font-size="14.00" fill="#666666">[timestamp with time zone]</text>
<polygon fill="none" stroke="black" points="220.4,-104.8 220.4,-135.6 552.38,-135.6 552.38,-104.8 220.4,-104.8"/>
<text text-anchor="start" x="227.4" y="-117" font-family="Arial" font-size="14.00">updated_at </text>
<text text-anchor="start" x="301.35" y="-117" font-family="Arial" font-size="14.00" fill="#666666">[timestamp with time zone]</text>
<polygon fill="none" stroke="black" points="220.4,-74 220.4,-104.8 552.38,-104.8 552.38,-74 220.4,-74"/>
<text text-anchor="start" x="227.4" y="-86.2" font-family="Arial" font-size="14.00">deleted_at </text>
<text text-anchor="start" x="296.68" y="-86.2" font-family="Arial" font-size="14.00" fill="#666666">[timestamp with time zone]</text>
<polygon fill="none" stroke="black" points="220.4,-43.2 220.4,-74 552.38,-74 552.38,-43.2 220.4,-43.2"/>
<text text-anchor="start" x="227.4" y="-55.4" font-family="Arial" font-size="14.00">public_id </text>
<text text-anchor="start" x="286.55" y="-55.4" font-family="Arial" font-size="14.00" fill="#666666">[uuid]</text>
</g>
<!-- public.story_choices&#45;&gt;public.story_play_sessions -->
<g id="edge1" class="edge">
<title>public.story_choices:play_session_id&#45;&gt;public.story_play_sessions:id</title>
<path fill="none" stroke="black" d="M441.52,-773.49C345.57,-763.66 391.93,-614.15 452.91,-527.6 479.99,-489.17 525.17,-529.94 552.38,-491.6 576.61,-457.45 595.25,-397.4 553.38,-397.4"/>
<polygon fill="black" stroke="black" points="441.59,-773.49 451.36,-778.48 446.92,-773.75 451.24,-773.97 451.24,-773.97 451.24,-773.97 446.92,-773.75 451.8,-769.49 441.59,-773.49"/>
<text text-anchor="start" x="7" y="-784" font-family="Arial" font-size="10.00">FOREIGN KEY (play_session_id) REFERENCES story_play_sessions(id) ON DELETE CASCADE</text>
</g>
<!-- public.story_messages -->
<g id="node3" class="node">
<title>public.story_messages</title>
<polygon fill="#efefef" stroke="none" points="656.91,-320.4 656.91,-356 957.87,-356 957.87,-320.4 656.91,-320.4"/>
<polygon fill="none" stroke="black" points="656.91,-320.4 656.91,-356 957.87,-356 957.87,-320.4 656.91,-320.4"/>
<text text-anchor="start" x="663.91" y="-333.8" font-family="Arial Bold" font-size="18.00">public.story_messages</text>
<text text-anchor="start" x="826.38" y="-333.8" font-family="Arial" font-size="14.00">    </text>
<text text-anchor="start" x="857.5" y="-333.8" font-family="Arial" font-size="14.00" fill="#666666">[BASE TABLE]</text>
<polygon fill="none" stroke="black" points="656.91,-289.6 656.91,-320.4 957.87,-320.4 957.87,-289.6 656.91,-289.6"/>
<text text-anchor="start" x="663.91" y="-301.8" font-family="Arial" font-size="14.00">id </text>
<text text-anchor="start" x="678.69" y="-301.8" font-family="Arial" font-size="14.00" fill="#666666">[bigint]</text>
<polygon fill="none" stroke="black" points="656.91,-258.8 656.91,-289.6 957.87,-289.6 957.87,-258.8 656.91,-258.8"/>
<text text-anchor="start" x="663.91" y="-271" font-family="Arial" font-size="14.00">play_session_id </text>
<text text-anchor="start" x="767.42" y="-271" font-family="Arial" font-size="14.00" fill="#666666">[bigint]</text>
<polygon fill="none" stroke="black" points="656.91,-228 656.91,-258.8 957.87,-258.8 957.87,-228 656.91,-228"/>
<text text-anchor="start" x="663.91" y="-240.2" font-family="Arial" font-size="14.00">role </text>
<text text-anchor="start" x="691.14" y="-240.2" font-family="Arial" font-size="14.00" fill="#666666">[varchar(16)]</text>
<polygon fill="none" stroke="black" points="656.91,-197.2 656.91,-228 957.87,-228 957.87,-197.2 656.91,-197.2"/>
<text text-anchor="start" x="663.91" y="-209.4" font-family="Arial" font-size="14.00">content </text>
<text text-anchor="start" x="713.72" y="-209.4" font-family="Arial" font-size="14.00" fill="#666666">[text]</text>
<polygon fill="none" stroke="black" points="656.91,-166.4 656.91,-197.2 957.87,-197.2 957.87,-166.4 656.91,-166.4"/>
<text text-anchor="start" x="663.91" y="-178.6" font-family="Arial" font-size="14.00">message_order </text>
<text text-anchor="start" x="765.07" y="-178.6" font-family="Arial" font-size="14.00" fill="#666666">[integer]</text>
<polygon fill="none" stroke="black" points="656.91,-135.6 656.91,-166.4 957.87,-166.4 957.87,-135.6 656.91,-135.6"/>
<text text-anchor="start" x="663.91" y="-147.8" font-family="Arial" font-size="14.00">created_at </text>
<text text-anchor="start" x="733.95" y="-147.8" font-family="Arial" font-size="14.00" fill="#666666">[timestamp with time zone]</text>
</g>
<!-- public.story_choices&#45;&gt;public.story_messages -->
<g id="edge2" class="edge">
<title>public.story_choices:message_id&#45;&gt;public.story_messages:id</title>
<path fill="none" stroke="black" d="M751.15,-742.95C959.03,-732.54 657,-399.5 656.91,-399.2 644.85,-359.1 614.04,-305 655.91,-305"/>
<polygon fill="black" stroke="black" points="751.2,-742.95 741.09,-738.69 745.86,-743.08 741.53,-743.18 741.53,-743.18 741.53,-743.18 745.86,-743.08 741.31,-747.69 751.2,-742.95"/>
<text text-anchor="start" x="747.86" y="-753.2" font-family="Arial" font-size="10.00">FOREIGN KEY (message_id) REFERENCES story_messages(id) ON DELETE CASCADE</text>
</g>
</g>
</svg>
