<?xml version="1.0" encoding="UTF-8" standalone="no"?>
<!DOCTYPE svg PUBLIC "-//W3C//DTD SVG 1.1//EN"
 "http://www.w3.org/Graphics/SVG/1.1/DTD/svg11.dtd">
<!-- Generated by graphviz version 12.1.2 (20240928.0832)
 -->
<!-- Title: public.story_suggested_inputs Pages: 1 -->
<svg width="857pt" height="664pt"
 viewBox="0.00 0.00 857.41 663.60" xmlns="http://www.w3.org/2000/svg" xmlns:xlink="http://www.w3.org/1999/xlink">
<g id="graph0" class="graph" transform="scale(1 1) rotate(0) translate(4 659.6)">
<title>public.story_suggested_inputs</title>
<polygon fill="white" stroke="none" points="-4,4 -4,-659.6 853.41,-659.6 853.41,4 -4,4"/>
<!-- public.story_suggested_inputs -->
<g id="node1" class="node">
<title>public.story_suggested_inputs</title>
<polygon fill="#efefef" stroke="none" points="46.2,-573.8 46.2,-609.4 403.18,-609.4 403.18,-573.8 46.2,-573.8"/>
<polygon fill="none" stroke="black" points="46.2,-573.8 46.2,-609.4 403.18,-609.4 403.18,-573.8 46.2,-573.8"/>
<text text-anchor="start" x="53.2" y="-587.2" font-family="Arial Bold" font-size="18.00">public.story_suggested_inputs</text>
<text text-anchor="start" x="271.69" y="-587.2" font-family="Arial" font-size="14.00">    </text>
<text text-anchor="start" x="302.8" y="-587.2" font-family="Arial" font-size="14.00" fill="#666666">[BASE TABLE]</text>
<polygon fill="none" stroke="black" points="46.2,-543 46.2,-573.8 403.18,-573.8 403.18,-543 46.2,-543"/>
<text text-anchor="start" x="53.2" y="-555.2" font-family="Arial" font-size="14.00">id </text>
<text text-anchor="start" x="67.99" y="-555.2" font-family="Arial" font-size="14.00" fill="#666666">[bigint]</text>
<polygon fill="none" stroke="black" points="46.2,-512.2 46.2,-543 403.18,-543 403.18,-512.2 46.2,-512.2"/>
<text text-anchor="start" x="53.2" y="-524.4" font-family="Arial" font-size="14.00">start_setting_id </text>
<text text-anchor="start" x="152.03" y="-524.4" font-family="Arial" font-size="14.00" fill="#666666">[bigint]</text>
<polygon fill="none" stroke="black" points="46.2,-481.4 46.2,-512.2 403.18,-512.2 403.18,-481.4 46.2,-481.4"/>
<text text-anchor="start" x="53.2" y="-493.6" font-family="Arial" font-size="14.00">input_text </text>
<text text-anchor="start" x="117.8" y="-493.6" font-family="Arial" font-size="14.00" fill="#666666">[text]</text>
<polygon fill="none" stroke="black" points="46.2,-450.6 46.2,-481.4 403.18,-481.4 403.18,-450.6 46.2,-450.6"/>
<text text-anchor="start" x="53.2" y="-462.8" font-family="Arial" font-size="14.00">input_order </text>
<text text-anchor="start" x="127.92" y="-462.8" font-family="Arial" font-size="14.00" fill="#666666">[smallint]</text>
<polygon fill="none" stroke="black" points="46.2,-419.8 46.2,-450.6 403.18,-450.6 403.18,-419.8 46.2,-419.8"/>
<text text-anchor="start" x="53.2" y="-432" font-family="Arial" font-size="14.00">created_at </text>
<text text-anchor="start" x="123.25" y="-432" font-family="Arial" font-size="14.00" fill="#666666">[timestamp with time zone]</text>
<polygon fill="none" stroke="black" stroke-width="3" points="44.7,-418.3 44.7,-610.9 404.68,-610.9 404.68,-418.3 44.7,-418.3"/>
</g>
<!-- public.story_start_settings -->
<g id="node2" class="node">
<title>public.story_start_settings</title>
<polygon fill="#efefef" stroke="none" points="60.7,-258.8 60.7,-294.4 388.67,-294.4 388.67,-258.8 60.7,-258.8"/>
<polygon fill="none" stroke="black" points="60.7,-258.8 60.7,-294.4 388.67,-294.4 388.67,-258.8 60.7,-258.8"/>
<text text-anchor="start" x="67.7" y="-272.2" font-family="Arial Bold" font-size="18.00">public.story_start_settings</text>
<text text-anchor="start" x="257.19" y="-272.2" font-family="Arial" font-size="14.00">    </text>
<text text-anchor="start" x="288.3" y="-272.2" font-family="Arial" font-size="14.00" fill="#666666">[BASE TABLE]</text>
<polygon fill="none" stroke="black" points="60.7,-228 60.7,-258.8 388.67,-258.8 388.67,-228 60.7,-228"/>
<text text-anchor="start" x="67.7" y="-240.2" font-family="Arial" font-size="14.00">id </text>
<text text-anchor="start" x="82.49" y="-240.2" font-family="Arial" font-size="14.00" fill="#666666">[bigint]</text>
<polygon fill="none" stroke="black" points="60.7,-197.2 60.7,-228 388.67,-228 388.67,-197.2 60.7,-197.2"/>
<text text-anchor="start" x="67.7" y="-209.4" font-family="Arial" font-size="14.00">story_id </text>
<text text-anchor="start" x="120.61" y="-209.4" font-family="Arial" font-size="14.00" fill="#666666">[bigint]</text>
<polygon fill="none" stroke="black" points="60.7,-166.4 60.7,-197.2 388.67,-197.2 388.67,-166.4 60.7,-166.4"/>
<text text-anchor="start" x="67.7" y="-178.6" font-family="Arial" font-size="14.00">name </text>
<text text-anchor="start" x="106.61" y="-178.6" font-family="Arial" font-size="14.00" fill="#666666">[varchar(100)]</text>
<polygon fill="none" stroke="black" points="60.7,-135.6 60.7,-166.4 388.67,-166.4 388.67,-135.6 60.7,-135.6"/>
<text text-anchor="start" x="67.7" y="-147.8" font-family="Arial" font-size="14.00">prologue </text>
<text text-anchor="start" x="126.08" y="-147.8" font-family="Arial" font-size="14.00" fill="#666666">[text]</text>
<polygon fill="none" stroke="black" points="60.7,-104.8 60.7,-135.6 388.67,-135.6 388.67,-104.8 60.7,-104.8"/>
<text text-anchor="start" x="67.7" y="-117" font-family="Arial" font-size="14.00">start_situation </text>
<text text-anchor="start" x="158.75" y="-117" font-family="Arial" font-size="14.00" fill="#666666">[text]</text>
<polygon fill="none" stroke="black" points="60.7,-74 60.7,-104.8 388.67,-104.8 388.67,-74 60.7,-74"/>
<text text-anchor="start" x="67.7" y="-86.2" font-family="Arial" font-size="14.00">created_at </text>
<text text-anchor="start" x="137.75" y="-86.2" font-family="Arial" font-size="14.00" fill="#666666">[timestamp with time zone]</text>
<polygon fill="none" stroke="black" points="60.7,-43.2 60.7,-74 388.67,-74 388.67,-43.2 60.7,-43.2"/>
<text text-anchor="start" x="67.7" y="-55.4" font-family="Arial" font-size="14.00">updated_at </text>
<text text-anchor="start" x="141.66" y="-55.4" font-family="Arial" font-size="14.00" fill="#666666">[timestamp with time zone]</text>
</g>
<!-- public.story_suggested_inputs&#45;&gt;public.story_start_settings -->
<g id="edge1" class="edge">
<title>public.story_suggested_inputs:start_setting_id&#45;&gt;public.story_start_settings:id</title>
<path fill="none" stroke="black" d="M414.18,-524.97C465.62,-496.32 449.33,-243.4 389.67,-243.4"/>
<polygon fill="black" stroke="black" points="414.17,-524.97 403.35,-523.16 409.01,-526.33 404.82,-527.43 404.82,-527.43 404.82,-527.43 409.01,-526.33 405.65,-531.87 414.17,-524.97"/>
<text text-anchor="start" x="411.18" y="-537.6" font-family="Arial" font-size="10.00">FOREIGN KEY (start_setting_id) REFERENCES story_start_settings(id) ON DELETE CASCADE</text>
</g>
</g>
</svg>
