<?xml version="1.0" encoding="UTF-8" standalone="no"?>
<!DOCTYPE svg PUBLIC "-//W3C//DTD SVG 1.1//EN"
 "http://www.w3.org/Graphics/SVG/1.1/DTD/svg11.dtd">
<!-- Generated by graphviz version 12.1.2 (20240928.0832)
 -->
<!-- Title: public.story_creation_session_tags Pages: 1 -->
<svg width="1181pt" height="664pt"
 viewBox="0.00 0.00 1180.96 663.60" xmlns="http://www.w3.org/2000/svg" xmlns:xlink="http://www.w3.org/1999/xlink">
<g id="graph0" class="graph" transform="scale(1 1) rotate(0) translate(4 659.6)">
<title>public.story_creation_session_tags</title>
<polygon fill="white" stroke="none" points="-4,4 -4,-659.6 1176.96,-659.6 1176.96,4 -4,4"/>
<!-- public.story_creation_session_tags -->
<g id="node1" class="node">
<title>public.story_creation_session_tags</title>
<polygon fill="#efefef" stroke="none" points="487.37,-573.8 487.37,-609.4 877.32,-609.4 877.32,-573.8 487.37,-573.8"/>
<polygon fill="none" stroke="black" points="487.37,-573.8 487.37,-609.4 877.32,-609.4 877.32,-573.8 487.37,-573.8"/>
<text text-anchor="start" x="494.37" y="-587.2" font-family="Arial Bold" font-size="18.00">public.story_creation_session_tags</text>
<text text-anchor="start" x="745.83" y="-587.2" font-family="Arial" font-size="14.00">    </text>
<text text-anchor="start" x="776.95" y="-587.2" font-family="Arial" font-size="14.00" fill="#666666">[BASE TABLE]</text>
<polygon fill="none" stroke="black" points="487.37,-543 487.37,-573.8 877.32,-573.8 877.32,-543 487.37,-543"/>
<text text-anchor="start" x="494.37" y="-555.2" font-family="Arial" font-size="14.00">id </text>
<text text-anchor="start" x="509.16" y="-555.2" font-family="Arial" font-size="14.00" fill="#666666">[bigint]</text>
<polygon fill="none" stroke="black" points="487.37,-512.2 487.37,-543 877.32,-543 877.32,-512.2 487.37,-512.2"/>
<text text-anchor="start" x="494.37" y="-524.4" font-family="Arial" font-size="14.00">creation_session_id </text>
<text text-anchor="start" x="622.01" y="-524.4" font-family="Arial" font-size="14.00" fill="#666666">[bigint]</text>
<polygon fill="none" stroke="black" points="487.37,-481.4 487.37,-512.2 877.32,-512.2 877.32,-481.4 487.37,-481.4"/>
<text text-anchor="start" x="494.37" y="-493.6" font-family="Arial" font-size="14.00">tag_id </text>
<text text-anchor="start" x="536.41" y="-493.6" font-family="Arial" font-size="14.00" fill="#666666">[bigint]</text>
<polygon fill="none" stroke="black" points="487.37,-450.6 487.37,-481.4 877.32,-481.4 877.32,-450.6 487.37,-450.6"/>
<text text-anchor="start" x="494.37" y="-462.8" font-family="Arial" font-size="14.00">created_at </text>
<text text-anchor="start" x="564.42" y="-462.8" font-family="Arial" font-size="14.00" fill="#666666">[timestamp with time zone]</text>
<polygon fill="none" stroke="black" stroke-width="3" points="485.87,-449.1 485.87,-610.9 878.82,-610.9 878.82,-449.1 485.87,-449.1"/>
</g>
<!-- public.story_creation_sessions -->
<g id="node2" class="node">
<title>public.story_creation_sessions</title>
<polygon fill="#efefef" stroke="none" points="278.87,-258.8 278.87,-294.4 637.82,-294.4 637.82,-258.8 278.87,-258.8"/>
<polygon fill="none" stroke="black" points="278.87,-258.8 278.87,-294.4 637.82,-294.4 637.82,-258.8 278.87,-258.8"/>
<text text-anchor="start" x="285.87" y="-272.2" font-family="Arial Bold" font-size="18.00">public.story_creation_sessions</text>
<text text-anchor="start" x="506.33" y="-272.2" font-family="Arial" font-size="14.00">    </text>
<text text-anchor="start" x="537.45" y="-272.2" font-family="Arial" font-size="14.00" fill="#666666">[BASE TABLE]</text>
<polygon fill="none" stroke="black" points="278.87,-228 278.87,-258.8 637.82,-258.8 637.82,-228 278.87,-228"/>
<text text-anchor="start" x="285.87" y="-240.2" font-family="Arial" font-size="14.00">id </text>
<text text-anchor="start" x="300.65" y="-240.2" font-family="Arial" font-size="14.00" fill="#666666">[bigint]</text>
<polygon fill="none" stroke="black" points="278.87,-197.2 278.87,-228 637.82,-228 637.82,-197.2 278.87,-197.2"/>
<text text-anchor="start" x="285.87" y="-209.4" font-family="Arial" font-size="14.00">user_id </text>
<text text-anchor="start" x="335.67" y="-209.4" font-family="Arial" font-size="14.00" fill="#666666">[bigint]</text>
<polygon fill="none" stroke="black" points="278.87,-166.4 278.87,-197.2 637.82,-197.2 637.82,-166.4 278.87,-166.4"/>
<text text-anchor="start" x="285.87" y="-178.6" font-family="Arial" font-size="14.00">story_id </text>
<text text-anchor="start" x="338.78" y="-178.6" font-family="Arial" font-size="14.00" fill="#666666">[bigint]</text>
<polygon fill="none" stroke="black" points="278.87,-135.6 278.87,-166.4 637.82,-166.4 637.82,-135.6 278.87,-135.6"/>
<text text-anchor="start" x="285.87" y="-147.8" font-family="Arial" font-size="14.00">status </text>
<text text-anchor="start" x="327.11" y="-147.8" font-family="Arial" font-size="14.00" fill="#666666">[varchar(30)]</text>
<polygon fill="none" stroke="black" points="278.87,-104.8 278.87,-135.6 637.82,-135.6 637.82,-104.8 278.87,-104.8"/>
<text text-anchor="start" x="285.87" y="-117" font-family="Arial" font-size="14.00">created_at </text>
<text text-anchor="start" x="355.92" y="-117" font-family="Arial" font-size="14.00" fill="#666666">[timestamp with time zone]</text>
<polygon fill="none" stroke="black" points="278.87,-74 278.87,-104.8 637.82,-104.8 637.82,-74 278.87,-74"/>
<text text-anchor="start" x="285.87" y="-86.2" font-family="Arial" font-size="14.00">updated_at </text>
<text text-anchor="start" x="359.83" y="-86.2" font-family="Arial" font-size="14.00" fill="#666666">[timestamp with time zone]</text>
</g>
<!-- public.story_creation_session_tags&#45;&gt;public.story_creation_sessions -->
<g id="edge1" class="edge">
<title>public.story_creation_session_tags:creation_session_id&#45;&gt;public.story_creation_sessions:id</title>
<path fill="none" stroke="black" d="M476.25,-526.55C435.15,-517.16 459.39,-447.06 487.37,-404.4 527.5,-343.22 597.62,-398.73 637.82,-337.6 660.83,-302.62 680.69,-243.4 638.82,-243.4"/>
<polygon fill="black" stroke="black" points="476.09,-526.53 485.58,-532.04 481.4,-527.08 485.71,-527.53 485.71,-527.53 485.71,-527.53 481.4,-527.08 486.5,-523.09 476.09,-526.53"/>
<text text-anchor="start" x="7" y="-537.6" font-family="Arial" font-size="10.00">FOREIGN KEY (creation_session_id) REFERENCES story_creation_sessions(id) ON DELETE CASCADE</text>
</g>
<!-- public.story_creation_tags -->
<g id="node3" class="node">
<title>public.story_creation_tags</title>
<polygon fill="#efefef" stroke="none" points="741.88,-289.6 741.88,-325.2 1070.81,-325.2 1070.81,-289.6 741.88,-289.6"/>
<polygon fill="none" stroke="black" points="741.88,-289.6 741.88,-325.2 1070.81,-325.2 1070.81,-289.6 741.88,-289.6"/>
<text text-anchor="start" x="748.88" y="-303" font-family="Arial Bold" font-size="18.00">public.story_creation_tags</text>
<text text-anchor="start" x="939.33" y="-303" font-family="Arial" font-size="14.00">    </text>
<text text-anchor="start" x="970.44" y="-303" font-family="Arial" font-size="14.00" fill="#666666">[BASE TABLE]</text>
<polygon fill="none" stroke="black" points="741.88,-258.8 741.88,-289.6 1070.81,-289.6 1070.81,-258.8 741.88,-258.8"/>
<text text-anchor="start" x="748.88" y="-271" font-family="Arial" font-size="14.00">id </text>
<text text-anchor="start" x="763.66" y="-271" font-family="Arial" font-size="14.00" fill="#666666">[bigint]</text>
<polygon fill="none" stroke="black" points="741.88,-228 741.88,-258.8 1070.81,-258.8 1070.81,-228 741.88,-228"/>
<text text-anchor="start" x="748.88" y="-240.2" font-family="Arial" font-size="14.00">tag_type </text>
<text text-anchor="start" x="806.48" y="-240.2" font-family="Arial" font-size="14.00" fill="#666666">[varchar(50)]</text>
<polygon fill="none" stroke="black" points="741.88,-197.2 741.88,-228 1070.81,-228 1070.81,-197.2 741.88,-197.2"/>
<text text-anchor="start" x="748.88" y="-209.4" font-family="Arial" font-size="14.00">name </text>
<text text-anchor="start" x="787.79" y="-209.4" font-family="Arial" font-size="14.00" fill="#666666">[varchar(30)]</text>
<polygon fill="none" stroke="black" points="741.88,-166.4 741.88,-197.2 1070.81,-197.2 1070.81,-166.4 741.88,-166.4"/>
<text text-anchor="start" x="748.88" y="-178.6" font-family="Arial" font-size="14.00">tag_source </text>
<text text-anchor="start" x="822.03" y="-178.6" font-family="Arial" font-size="14.00" fill="#666666">[varchar(20)]</text>
<polygon fill="none" stroke="black" points="741.88,-135.6 741.88,-166.4 1070.81,-166.4 1070.81,-135.6 741.88,-135.6"/>
<text text-anchor="start" x="748.88" y="-147.8" font-family="Arial" font-size="14.00">sort_order </text>
<text text-anchor="start" x="816.57" y="-147.8" font-family="Arial" font-size="14.00" fill="#666666">[integer]</text>
<polygon fill="none" stroke="black" points="741.88,-104.8 741.88,-135.6 1070.81,-135.6 1070.81,-104.8 741.88,-104.8"/>
<text text-anchor="start" x="748.88" y="-117" font-family="Arial" font-size="14.00">is_active </text>
<text text-anchor="start" x="807.23" y="-117" font-family="Arial" font-size="14.00" fill="#666666">[boolean]</text>
<polygon fill="none" stroke="black" points="741.88,-74 741.88,-104.8 1070.81,-104.8 1070.81,-74 741.88,-74"/>
<text text-anchor="start" x="748.88" y="-86.2" font-family="Arial" font-size="14.00">created_at </text>
<text text-anchor="start" x="818.92" y="-86.2" font-family="Arial" font-size="14.00" fill="#666666">[timestamp with time zone]</text>
<polygon fill="none" stroke="black" points="741.88,-43.2 741.88,-74 1070.81,-74 1070.81,-43.2 741.88,-43.2"/>
<text text-anchor="start" x="748.88" y="-55.4" font-family="Arial" font-size="14.00">updated_at </text>
<text text-anchor="start" x="822.83" y="-55.4" font-family="Arial" font-size="14.00" fill="#666666">[timestamp with time zone]</text>
</g>
<!-- public.story_creation_session_tags&#45;&gt;public.story_creation_tags -->
<g id="edge2" class="edge">
<title>public.story_creation_session_tags:tag_id&#45;&gt;public.story_creation_tags:id</title>
<path fill="none" stroke="black" d="M888.38,-495.29C916.15,-485.8 900.16,-433.78 877.32,-404.4 839.08,-355.23 780.1,-417.57 741.88,-368.4 716.18,-335.34 699.01,-274.2 740.88,-274.2"/>
<polygon fill="black" stroke="black" points="888.54,-495.27 877.98,-492.3 883.26,-496.06 878.98,-496.7 878.98,-496.7 878.98,-496.7 883.26,-496.06 879.32,-501.2 888.54,-495.27"/>
<text text-anchor="start" x="885.32" y="-506.8" font-family="Arial" font-size="10.00">FOREIGN KEY (tag_id) REFERENCES story_creation_tags(id)</text>
</g>
</g>
</svg>
