<?xml version="1.0" encoding="UTF-8" standalone="no"?>
<!DOCTYPE svg PUBLIC "-//W3C//DTD SVG 1.1//EN"
 "http://www.w3.org/Graphics/SVG/1.1/DTD/svg11.dtd">
<!-- Generated by graphviz version 12.1.2 (20240928.0832)
 -->
<!-- Title: public.social_accounts Pages: 1 -->
<svg width="705pt" height="848pt"
 viewBox="0.00 0.00 705.10 848.40" xmlns="http://www.w3.org/2000/svg" xmlns:xlink="http://www.w3.org/1999/xlink">
<g id="graph0" class="graph" transform="scale(1 1) rotate(0) translate(4 844.4)">
<title>public.social_accounts</title>
<polygon fill="white" stroke="none" points="-4,4 -4,-844.4 701.1,-844.4 701.1,4 -4,4"/>
<!-- public.social_accounts -->
<g id="node1" class="node">
<title>public.social_accounts</title>
<polygon fill="#efefef" stroke="none" points="46.2,-758.6 46.2,-794.2 348.14,-794.2 348.14,-758.6 46.2,-758.6"/>
<polygon fill="none" stroke="black" points="46.2,-758.6 46.2,-794.2 348.14,-794.2 348.14,-758.6 46.2,-758.6"/>
<text text-anchor="start" x="53.2" y="-772" font-family="Arial Bold" font-size="18.00">public.social_accounts</text>
<text text-anchor="start" x="216.65" y="-772" font-family="Arial" font-size="14.00">    </text>
<text text-anchor="start" x="247.77" y="-772" font-family="Arial" font-size="14.00" fill="#666666">[BASE TABLE]</text>
<polygon fill="none" stroke="black" points="46.2,-727.8 46.2,-758.6 348.14,-758.6 348.14,-727.8 46.2,-727.8"/>
<text text-anchor="start" x="53.2" y="-740" font-family="Arial" font-size="14.00">id </text>
<text text-anchor="start" x="67.99" y="-740" font-family="Arial" font-size="14.00" fill="#666666">[bigint]</text>
<polygon fill="none" stroke="black" points="46.2,-697 46.2,-727.8 348.14,-727.8 348.14,-697 46.2,-697"/>
<text text-anchor="start" x="53.2" y="-709.2" font-family="Arial" font-size="14.00">user_id </text>
<text text-anchor="start" x="103.01" y="-709.2" font-family="Arial" font-size="14.00" fill="#666666">[bigint]</text>
<polygon fill="none" stroke="black" points="46.2,-666.2 46.2,-697 348.14,-697 348.14,-666.2 46.2,-666.2"/>
<text text-anchor="start" x="53.2" y="-678.4" font-family="Arial" font-size="14.00">provider </text>
<text text-anchor="start" x="107.67" y="-678.4" font-family="Arial" font-size="14.00" fill="#666666">[varchar(20)]</text>
<polygon fill="none" stroke="black" points="46.2,-635.4 46.2,-666.2 348.14,-666.2 348.14,-635.4 46.2,-635.4"/>
<text text-anchor="start" x="53.2" y="-647.6" font-family="Arial" font-size="14.00">provider_user_id </text>
<text text-anchor="start" x="161.37" y="-647.6" font-family="Arial" font-size="14.00" fill="#666666">[varchar(255)]</text>
<polygon fill="none" stroke="black" points="46.2,-604.6 46.2,-635.4 348.14,-635.4 348.14,-604.6 46.2,-604.6"/>
<text text-anchor="start" x="53.2" y="-616.8" font-family="Arial" font-size="14.00">email </text>
<text text-anchor="start" x="90.54" y="-616.8" font-family="Arial" font-size="14.00" fill="#666666">[varchar(255)]</text>
<polygon fill="none" stroke="black" points="46.2,-573.8 46.2,-604.6 348.14,-604.6 348.14,-573.8 46.2,-573.8"/>
<text text-anchor="start" x="53.2" y="-586" font-family="Arial" font-size="14.00">connected_at </text>
<text text-anchor="start" x="141.16" y="-586" font-family="Arial" font-size="14.00" fill="#666666">[timestamp with time zone]</text>
<polygon fill="none" stroke="black" points="46.2,-543 46.2,-573.8 348.14,-573.8 348.14,-543 46.2,-543"/>
<text text-anchor="start" x="53.2" y="-555.2" font-family="Arial" font-size="14.00">last_login_at </text>
<text text-anchor="start" x="135.7" y="-555.2" font-family="Arial" font-size="14.00" fill="#666666">[timestamp with time zone]</text>
<polygon fill="none" stroke="black" points="46.2,-512.2 46.2,-543 348.14,-543 348.14,-512.2 46.2,-512.2"/>
<text text-anchor="start" x="53.2" y="-524.4" font-family="Arial" font-size="14.00">created_at </text>
<text text-anchor="start" x="123.25" y="-524.4" font-family="Arial" font-size="14.00" fill="#666666">[timestamp with time zone]</text>
<polygon fill="none" stroke="black" points="46.2,-481.4 46.2,-512.2 348.14,-512.2 348.14,-481.4 46.2,-481.4"/>
<text text-anchor="start" x="53.2" y="-493.6" font-family="Arial" font-size="14.00">updated_at </text>
<text text-anchor="start" x="127.16" y="-493.6" font-family="Arial" font-size="14.00" fill="#666666">[timestamp with time zone]</text>
<polygon fill="none" stroke="black" stroke-width="3" points="44.7,-479.9 44.7,-795.7 349.64,-795.7 349.64,-479.9 44.7,-479.9"/>
</g>
<!-- public.users -->
<g id="node2" class="node">
<title>public.users</title>
<polygon fill="#efefef" stroke="none" points="70.33,-320.4 70.33,-356 324.01,-356 324.01,-320.4 70.33,-320.4"/>
<polygon fill="none" stroke="black" points="70.33,-320.4 70.33,-356 324.01,-356 324.01,-320.4 70.33,-320.4"/>
<text text-anchor="start" x="91.68" y="-333.8" font-family="Arial Bold" font-size="18.00">public.users</text>
<text text-anchor="start" x="178.17" y="-333.8" font-family="Arial" font-size="14.00">    </text>
<text text-anchor="start" x="209.28" y="-333.8" font-family="Arial" font-size="14.00" fill="#666666">[BASE TABLE]</text>
<polygon fill="none" stroke="black" points="70.33,-289.6 70.33,-320.4 324.01,-320.4 324.01,-289.6 70.33,-289.6"/>
<text text-anchor="start" x="77.33" y="-301.8" font-family="Arial" font-size="14.00">id </text>
<text text-anchor="start" x="92.12" y="-301.8" font-family="Arial" font-size="14.00" fill="#666666">[bigint]</text>
<polygon fill="none" stroke="black" points="70.33,-258.8 70.33,-289.6 324.01,-289.6 324.01,-258.8 70.33,-258.8"/>
<text text-anchor="start" x="77.33" y="-271" font-family="Arial" font-size="14.00">public_id </text>
<text text-anchor="start" x="136.48" y="-271" font-family="Arial" font-size="14.00" fill="#666666">[uuid]</text>
<polygon fill="none" stroke="black" points="70.33,-228 70.33,-258.8 324.01,-258.8 324.01,-228 70.33,-228"/>
<text text-anchor="start" x="77.33" y="-240.2" font-family="Arial" font-size="14.00">nickname </text>
<text text-anchor="start" x="141.14" y="-240.2" font-family="Arial" font-size="14.00" fill="#666666">[varchar(50)]</text>
<polygon fill="none" stroke="black" points="70.33,-197.2 70.33,-228 324.01,-228 324.01,-197.2 70.33,-197.2"/>
<text text-anchor="start" x="77.33" y="-209.4" font-family="Arial" font-size="14.00">profile_image_url </text>
<text text-anchor="start" x="188.61" y="-209.4" font-family="Arial" font-size="14.00" fill="#666666">[text]</text>
<polygon fill="none" stroke="black" points="70.33,-166.4 70.33,-197.2 324.01,-197.2 324.01,-166.4 70.33,-166.4"/>
<text text-anchor="start" x="77.33" y="-178.6" font-family="Arial" font-size="14.00">profile_thumbnail_base64 </text>
<text text-anchor="start" x="241.56" y="-178.6" font-family="Arial" font-size="14.00" fill="#666666">[text]</text>
<polygon fill="none" stroke="black" points="70.33,-135.6 70.33,-166.4 324.01,-166.4 324.01,-135.6 70.33,-135.6"/>
<text text-anchor="start" x="77.33" y="-147.8" font-family="Arial" font-size="14.00">status </text>
<text text-anchor="start" x="118.57" y="-147.8" font-family="Arial" font-size="14.00" fill="#666666">[varchar(20)]</text>
<polygon fill="none" stroke="black" points="70.33,-104.8 70.33,-135.6 324.01,-135.6 324.01,-104.8 70.33,-104.8"/>
<text text-anchor="start" x="77.33" y="-117" font-family="Arial" font-size="14.00">created_at </text>
<text text-anchor="start" x="147.38" y="-117" font-family="Arial" font-size="14.00" fill="#666666">[timestamp with time zone]</text>
<polygon fill="none" stroke="black" points="70.33,-74 70.33,-104.8 324.01,-104.8 324.01,-74 70.33,-74"/>
<text text-anchor="start" x="77.33" y="-86.2" font-family="Arial" font-size="14.00">updated_at </text>
<text text-anchor="start" x="151.29" y="-86.2" font-family="Arial" font-size="14.00" fill="#666666">[timestamp with time zone]</text>
<polygon fill="none" stroke="black" points="70.33,-43.2 70.33,-74 324.01,-74 324.01,-43.2 70.33,-43.2"/>
<text text-anchor="start" x="77.33" y="-55.4" font-family="Arial" font-size="14.00">deleted_at </text>
<text text-anchor="start" x="146.61" y="-55.4" font-family="Arial" font-size="14.00" fill="#666666">[timestamp with time zone]</text>
</g>
<!-- public.social_accounts&#45;&gt;public.users -->
<g id="edge1" class="edge">
<title>public.social_accounts:user_id&#45;&gt;public.users:id</title>
<path fill="none" stroke="black" d="M359.24,-710.58C437.84,-681.19 412.16,-305 325.01,-305"/>
<polygon fill="black" stroke="black" points="359.31,-710.57 348.67,-707.91 354.06,-711.52 349.8,-712.28 349.8,-712.28 349.8,-712.28 354.06,-711.52 350.26,-716.77 359.31,-710.57"/>
<text text-anchor="start" x="356.14" y="-722.4" font-family="Arial" font-size="10.00">FOREIGN KEY (user_id) REFERENCES users(id) ON DELETE CASCADE</text>
</g>
</g>
</svg>
