<?xml version="1.0" encoding="UTF-8" standalone="no"?>
<!DOCTYPE svg PUBLIC "-//W3C//DTD SVG 1.1//EN"
 "http://www.w3.org/Graphics/SVG/1.1/DTD/svg11.dtd">
<!-- Generated by graphviz version 12.1.2 (20240928.0832)
 -->
<!-- Title: public.users Pages: 1 -->
<svg width="702pt" height="848pt"
 viewBox="0.00 0.00 702.10 848.40" xmlns="http://www.w3.org/2000/svg" xmlns:xlink="http://www.w3.org/1999/xlink">
<g id="graph0" class="graph" transform="scale(1 1) rotate(0) translate(4 844.4)">
<title>public.users</title>
<polygon fill="white" stroke="none" points="-4,4 -4,-844.4 698.1,-844.4 698.1,4 -4,4"/>
<!-- public.users -->
<g id="node1" class="node">
<title>public.users</title>
<polygon fill="#efefef" stroke="none" points="67.33,-323.4 67.33,-359 321.01,-359 321.01,-323.4 67.33,-323.4"/>
<polygon fill="none" stroke="black" points="67.33,-323.4 67.33,-359 321.01,-359 321.01,-323.4 67.33,-323.4"/>
<text text-anchor="start" x="88.68" y="-336.8" font-family="Arial Bold" font-size="18.00">public.users</text>
<text text-anchor="start" x="175.17" y="-336.8" font-family="Arial" font-size="14.00">    </text>
<text text-anchor="start" x="206.28" y="-336.8" font-family="Arial" font-size="14.00" fill="#666666">[BASE TABLE]</text>
<polygon fill="none" stroke="black" points="67.33,-292.6 67.33,-323.4 321.01,-323.4 321.01,-292.6 67.33,-292.6"/>
<text text-anchor="start" x="74.33" y="-304.8" font-family="Arial" font-size="14.00">id </text>
<text text-anchor="start" x="89.12" y="-304.8" font-family="Arial" font-size="14.00" fill="#666666">[bigint]</text>
<polygon fill="none" stroke="black" points="67.33,-261.8 67.33,-292.6 321.01,-292.6 321.01,-261.8 67.33,-261.8"/>
<text text-anchor="start" x="74.33" y="-274" font-family="Arial" font-size="14.00">public_id </text>
<text text-anchor="start" x="133.48" y="-274" font-family="Arial" font-size="14.00" fill="#666666">[uuid]</text>
<polygon fill="none" stroke="black" points="67.33,-231 67.33,-261.8 321.01,-261.8 321.01,-231 67.33,-231"/>
<text text-anchor="start" x="74.33" y="-243.2" font-family="Arial" font-size="14.00">nickname </text>
<text text-anchor="start" x="138.14" y="-243.2" font-family="Arial" font-size="14.00" fill="#666666">[varchar(50)]</text>
<polygon fill="none" stroke="black" points="67.33,-200.2 67.33,-231 321.01,-231 321.01,-200.2 67.33,-200.2"/>
<text text-anchor="start" x="74.33" y="-212.4" font-family="Arial" font-size="14.00">profile_image_url </text>
<text text-anchor="start" x="185.61" y="-212.4" font-family="Arial" font-size="14.00" fill="#666666">[text]</text>
<polygon fill="none" stroke="black" points="67.33,-169.4 67.33,-200.2 321.01,-200.2 321.01,-169.4 67.33,-169.4"/>
<text text-anchor="start" x="74.33" y="-181.6" font-family="Arial" font-size="14.00">profile_thumbnail_base64 </text>
<text text-anchor="start" x="238.56" y="-181.6" font-family="Arial" font-size="14.00" fill="#666666">[text]</text>
<polygon fill="none" stroke="black" points="67.33,-138.6 67.33,-169.4 321.01,-169.4 321.01,-138.6 67.33,-138.6"/>
<text text-anchor="start" x="74.33" y="-150.8" font-family="Arial" font-size="14.00">status </text>
<text text-anchor="start" x="115.57" y="-150.8" font-family="Arial" font-size="14.00" fill="#666666">[varchar(20)]</text>
<polygon fill="none" stroke="black" points="67.33,-107.8 67.33,-138.6 321.01,-138.6 321.01,-107.8 67.33,-107.8"/>
<text text-anchor="start" x="74.33" y="-120" font-family="Arial" font-size="14.00">created_at </text>
<text text-anchor="start" x="144.38" y="-120" font-family="Arial" font-size="14.00" fill="#666666">[timestamp with time zone]</text>
<polygon fill="none" stroke="black" points="67.33,-77 67.33,-107.8 321.01,-107.8 321.01,-77 67.33,-77"/>
<text text-anchor="start" x="74.33" y="-89.2" font-family="Arial" font-size="14.00">updated_at </text>
<text text-anchor="start" x="148.29" y="-89.2" font-family="Arial" font-size="14.00" fill="#666666">[timestamp with time zone]</text>
<polygon fill="none" stroke="black" points="67.33,-46.2 67.33,-77 321.01,-77 321.01,-46.2 67.33,-46.2"/>
<text text-anchor="start" x="74.33" y="-58.4" font-family="Arial" font-size="14.00">deleted_at </text>
<text text-anchor="start" x="143.61" y="-58.4" font-family="Arial" font-size="14.00" fill="#666666">[timestamp with time zone]</text>
<polygon fill="none" stroke="black" stroke-width="3" points="65.83,-44.7 65.83,-360.5 322.51,-360.5 322.51,-44.7 65.83,-44.7"/>
</g>
<!-- public.social_accounts -->
<g id="node2" class="node">
<title>public.social_accounts</title>
<polygon fill="#efefef" stroke="none" points="43.2,-761.6 43.2,-797.2 345.14,-797.2 345.14,-761.6 43.2,-761.6"/>
<polygon fill="none" stroke="black" points="43.2,-761.6 43.2,-797.2 345.14,-797.2 345.14,-761.6 43.2,-761.6"/>
<text text-anchor="start" x="50.2" y="-775" font-family="Arial Bold" font-size="18.00">public.social_accounts</text>
<text text-anchor="start" x="213.65" y="-775" font-family="Arial" font-size="14.00">    </text>
<text text-anchor="start" x="244.77" y="-775" font-family="Arial" font-size="14.00" fill="#666666">[BASE TABLE]</text>
<polygon fill="none" stroke="black" points="43.2,-730.8 43.2,-761.6 345.14,-761.6 345.14,-730.8 43.2,-730.8"/>
<text text-anchor="start" x="50.2" y="-743" font-family="Arial" font-size="14.00">id </text>
<text text-anchor="start" x="64.99" y="-743" font-family="Arial" font-size="14.00" fill="#666666">[bigint]</text>
<polygon fill="none" stroke="black" points="43.2,-700 43.2,-730.8 345.14,-730.8 345.14,-700 43.2,-700"/>
<text text-anchor="start" x="50.2" y="-712.2" font-family="Arial" font-size="14.00">user_id </text>
<text text-anchor="start" x="100.01" y="-712.2" font-family="Arial" font-size="14.00" fill="#666666">[bigint]</text>
<polygon fill="none" stroke="black" points="43.2,-669.2 43.2,-700 345.14,-700 345.14,-669.2 43.2,-669.2"/>
<text text-anchor="start" x="50.2" y="-681.4" font-family="Arial" font-size="14.00">provider </text>
<text text-anchor="start" x="104.67" y="-681.4" font-family="Arial" font-size="14.00" fill="#666666">[varchar(20)]</text>
<polygon fill="none" stroke="black" points="43.2,-638.4 43.2,-669.2 345.14,-669.2 345.14,-638.4 43.2,-638.4"/>
<text text-anchor="start" x="50.2" y="-650.6" font-family="Arial" font-size="14.00">provider_user_id </text>
<text text-anchor="start" x="158.37" y="-650.6" font-family="Arial" font-size="14.00" fill="#666666">[varchar(255)]</text>
<polygon fill="none" stroke="black" points="43.2,-607.6 43.2,-638.4 345.14,-638.4 345.14,-607.6 43.2,-607.6"/>
<text text-anchor="start" x="50.2" y="-619.8" font-family="Arial" font-size="14.00">email </text>
<text text-anchor="start" x="87.54" y="-619.8" font-family="Arial" font-size="14.00" fill="#666666">[varchar(255)]</text>
<polygon fill="none" stroke="black" points="43.2,-576.8 43.2,-607.6 345.14,-607.6 345.14,-576.8 43.2,-576.8"/>
<text text-anchor="start" x="50.2" y="-589" font-family="Arial" font-size="14.00">connected_at </text>
<text text-anchor="start" x="138.16" y="-589" font-family="Arial" font-size="14.00" fill="#666666">[timestamp with time zone]</text>
<polygon fill="none" stroke="black" points="43.2,-546 43.2,-576.8 345.14,-576.8 345.14,-546 43.2,-546"/>
<text text-anchor="start" x="50.2" y="-558.2" font-family="Arial" font-size="14.00">last_login_at </text>
<text text-anchor="start" x="132.7" y="-558.2" font-family="Arial" font-size="14.00" fill="#666666">[timestamp with time zone]</text>
<polygon fill="none" stroke="black" points="43.2,-515.2 43.2,-546 345.14,-546 345.14,-515.2 43.2,-515.2"/>
<text text-anchor="start" x="50.2" y="-527.4" font-family="Arial" font-size="14.00">created_at </text>
<text text-anchor="start" x="120.25" y="-527.4" font-family="Arial" font-size="14.00" fill="#666666">[timestamp with time zone]</text>
<polygon fill="none" stroke="black" points="43.2,-484.4 43.2,-515.2 345.14,-515.2 345.14,-484.4 43.2,-484.4"/>
<text text-anchor="start" x="50.2" y="-496.6" font-family="Arial" font-size="14.00">updated_at </text>
<text text-anchor="start" x="124.16" y="-496.6" font-family="Arial" font-size="14.00" fill="#666666">[timestamp with time zone]</text>
</g>
<!-- public.social_accounts&#45;&gt;public.users -->
<g id="edge1" class="edge">
<title>public.social_accounts:user_id&#45;&gt;public.users:id</title>
<path fill="none" stroke="black" d="M356.24,-713.58C434.84,-684.19 409.16,-308 322.01,-308"/>
<polygon fill="black" stroke="black" points="356.31,-713.57 345.67,-710.91 351.06,-714.52 346.8,-715.28 346.8,-715.28 346.8,-715.28 351.06,-714.52 347.26,-719.77 356.31,-713.57"/>
<text text-anchor="start" x="353.14" y="-725.4" font-family="Arial" font-size="10.00">FOREIGN KEY (user_id) REFERENCES users(id) ON DELETE CASCADE</text>
</g>
</g>
</svg>
