<?xml version="1.0" encoding="UTF-8" standalone="no"?>
<!DOCTYPE svg PUBLIC "-//W3C//DTD SVG 1.1//EN"
 "http://www.w3.org/Graphics/SVG/1.1/DTD/svg11.dtd">
<!-- Generated by graphviz version 12.1.2 (20240928.0832)
 -->
<!-- Title: public.story_messages Pages: 1 -->
<svg width="821pt" height="1253pt"
 viewBox="0.00 0.00 820.58 1252.80" xmlns="http://www.w3.org/2000/svg" xmlns:xlink="http://www.w3.org/1999/xlink">
<g id="graph0" class="graph" transform="scale(1 1) rotate(0) translate(4 1248.8)">
<title>public.story_messages</title>
<polygon fill="white" stroke="none" points="-4,4 -4,-1248.8 816.58,-1248.8 816.58,4 -4,4"/>
<!-- public.story_messages -->
<g id="node1" class="node">
<title>public.story_messages</title>
<polygon fill="#efefef" stroke="none" points="58.71,-758.6 58.71,-794.2 359.67,-794.2 359.67,-758.6 58.71,-758.6"/>
<polygon fill="none" stroke="black" points="58.71,-758.6 58.71,-794.2 359.67,-794.2 359.67,-758.6 58.71,-758.6"/>
<text text-anchor="start" x="65.71" y="-772" font-family="Arial Bold" font-size="18.00">public.story_messages</text>
<text text-anchor="start" x="228.18" y="-772" font-family="Arial" font-size="14.00">    </text>
<text text-anchor="start" x="259.3" y="-772" font-family="Arial" font-size="14.00" fill="#666666">[BASE TABLE]</text>
<polygon fill="none" stroke="black" points="58.71,-727.8 58.71,-758.6 359.67,-758.6 359.67,-727.8 58.71,-727.8"/>
<text text-anchor="start" x="65.71" y="-740" font-family="Arial" font-size="14.00">id </text>
<text text-anchor="start" x="80.49" y="-740" font-family="Arial" font-size="14.00" fill="#666666">[bigint]</text>
<polygon fill="none" stroke="black" points="58.71,-697 58.71,-727.8 359.67,-727.8 359.67,-697 58.71,-697"/>
<text text-anchor="start" x="65.71" y="-709.2" font-family="Arial" font-size="14.00">play_session_id </text>
<text text-anchor="start" x="169.22" y="-709.2" font-family="Arial" font-size="14.00" fill="#666666">[bigint]</text>
<polygon fill="none" stroke="black" points="58.71,-666.2 58.71,-697 359.67,-697 359.67,-666.2 58.71,-666.2"/>
<text text-anchor="start" x="65.71" y="-678.4" font-family="Arial" font-size="14.00">role </text>
<text text-anchor="start" x="92.94" y="-678.4" font-family="Arial" font-size="14.00" fill="#666666">[varchar(16)]</text>
<polygon fill="none" stroke="black" points="58.71,-635.4 58.71,-666.2 359.67,-666.2 359.67,-635.4 58.71,-635.4"/>
<text text-anchor="start" x="65.71" y="-647.6" font-family="Arial" font-size="14.00">content </text>
<text text-anchor="start" x="115.52" y="-647.6" font-family="Arial" font-size="14.00" fill="#666666">[text]</text>
<polygon fill="none" stroke="black" points="58.71,-604.6 58.71,-635.4 359.67,-635.4 359.67,-604.6 58.71,-604.6"/>
<text text-anchor="start" x="65.71" y="-616.8" font-family="Arial" font-size="14.00">message_order </text>
<text text-anchor="start" x="166.87" y="-616.8" font-family="Arial" font-size="14.00" fill="#666666">[integer]</text>
<polygon fill="none" stroke="black" points="58.71,-573.8 58.71,-604.6 359.67,-604.6 359.67,-573.8 58.71,-573.8"/>
<text text-anchor="start" x="65.71" y="-586" font-family="Arial" font-size="14.00">created_at </text>
<text text-anchor="start" x="135.76" y="-586" font-family="Arial" font-size="14.00" fill="#666666">[timestamp with time zone]</text>
<polygon fill="none" stroke="black" stroke-width="3" points="57.21,-572.3 57.21,-795.7 361.17,-795.7 361.17,-572.3 57.21,-572.3"/>
</g>
<!-- public.story_play_sessions -->
<g id="node3" class="node">
<title>public.story_play_sessions</title>
<polygon fill="#efefef" stroke="none" points="43.2,-412.8 43.2,-448.4 375.18,-448.4 375.18,-412.8 43.2,-412.8"/>
<polygon fill="none" stroke="black" points="43.2,-412.8 43.2,-448.4 375.18,-448.4 375.18,-412.8 43.2,-412.8"/>
<text text-anchor="start" x="50.2" y="-426.2" font-family="Arial Bold" font-size="18.00">public.story_play_sessions</text>
<text text-anchor="start" x="243.69" y="-426.2" font-family="Arial" font-size="14.00">    </text>
<text text-anchor="start" x="274.81" y="-426.2" font-family="Arial" font-size="14.00" fill="#666666">[BASE TABLE]</text>
<polygon fill="none" stroke="black" points="43.2,-382 43.2,-412.8 375.18,-412.8 375.18,-382 43.2,-382"/>
<text text-anchor="start" x="50.2" y="-394.2" font-family="Arial" font-size="14.00">id </text>
<text text-anchor="start" x="64.99" y="-394.2" font-family="Arial" font-size="14.00" fill="#666666">[bigint]</text>
<polygon fill="none" stroke="black" points="43.2,-351.2 43.2,-382 375.18,-382 375.18,-351.2 43.2,-351.2"/>
<text text-anchor="start" x="50.2" y="-363.4" font-family="Arial" font-size="14.00">user_id </text>
<text text-anchor="start" x="100.01" y="-363.4" font-family="Arial" font-size="14.00" fill="#666666">[bigint]</text>
<polygon fill="none" stroke="black" points="43.2,-320.4 43.2,-351.2 375.18,-351.2 375.18,-320.4 43.2,-320.4"/>
<text text-anchor="start" x="50.2" y="-332.6" font-family="Arial" font-size="14.00">story_id </text>
<text text-anchor="start" x="103.11" y="-332.6" font-family="Arial" font-size="14.00" fill="#666666">[bigint]</text>
<polygon fill="none" stroke="black" points="43.2,-289.6 43.2,-320.4 375.18,-320.4 375.18,-289.6 43.2,-289.6"/>
<text text-anchor="start" x="50.2" y="-301.8" font-family="Arial" font-size="14.00">start_setting_id </text>
<text text-anchor="start" x="149.03" y="-301.8" font-family="Arial" font-size="14.00" fill="#666666">[bigint]</text>
<polygon fill="none" stroke="black" points="43.2,-258.8 43.2,-289.6 375.18,-289.6 375.18,-258.8 43.2,-258.8"/>
<text text-anchor="start" x="50.2" y="-271" font-family="Arial" font-size="14.00">title </text>
<text text-anchor="start" x="75.88" y="-271" font-family="Arial" font-size="14.00" fill="#666666">[varchar(100)]</text>
<polygon fill="none" stroke="black" points="43.2,-228 43.2,-258.8 375.18,-258.8 375.18,-228 43.2,-228"/>
<text text-anchor="start" x="50.2" y="-240.2" font-family="Arial" font-size="14.00">summary </text>
<text text-anchor="start" x="111.65" y="-240.2" font-family="Arial" font-size="14.00" fill="#666666">[text]</text>
<polygon fill="none" stroke="black" points="43.2,-197.2 43.2,-228 375.18,-228 375.18,-197.2 43.2,-197.2"/>
<text text-anchor="start" x="50.2" y="-209.4" font-family="Arial" font-size="14.00">current_turn </text>
<text text-anchor="start" x="129.57" y="-209.4" font-family="Arial" font-size="14.00" fill="#666666">[integer]</text>
<polygon fill="none" stroke="black" points="43.2,-166.4 43.2,-197.2 375.18,-197.2 375.18,-166.4 43.2,-166.4"/>
<text text-anchor="start" x="50.2" y="-178.6" font-family="Arial" font-size="14.00">status </text>
<text text-anchor="start" x="91.44" y="-178.6" font-family="Arial" font-size="14.00" fill="#666666">[varchar(20)]</text>
<polygon fill="none" stroke="black" points="43.2,-135.6 43.2,-166.4 375.18,-166.4 375.18,-135.6 43.2,-135.6"/>
<text text-anchor="start" x="50.2" y="-147.8" font-family="Arial" font-size="14.00">created_at </text>
<text text-anchor="start" x="120.25" y="-147.8" font-family="Arial" font-size="14.00" fill="#666666">[timestamp with time zone]</text>
<polygon fill="none" stroke="black" points="43.2,-104.8 43.2,-135.6 375.18,-135.6 375.18,-104.8 43.2,-104.8"/>
<text text-anchor="start" x="50.2" y="-117" font-family="Arial" font-size="14.00">updated_at </text>
<text text-anchor="start" x="124.16" y="-117" font-family="Arial" font-size="14.00" fill="#666666">[timestamp with time zone]</text>
<polygon fill="none" stroke="black" points="43.2,-74 43.2,-104.8 375.18,-104.8 375.18,-74 43.2,-74"/>
<text text-anchor="start" x="50.2" y="-86.2" font-family="Arial" font-size="14.00">deleted_at </text>
<text text-anchor="start" x="119.48" y="-86.2" font-family="Arial" font-size="14.00" fill="#666666">[timestamp with time zone]</text>
<polygon fill="none" stroke="black" points="43.2,-43.2 43.2,-74 375.18,-74 375.18,-43.2 43.2,-43.2"/>
<text text-anchor="start" x="50.2" y="-55.4" font-family="Arial" font-size="14.00">public_id </text>
<text text-anchor="start" x="109.35" y="-55.4" font-family="Arial" font-size="14.00" fill="#666666">[uuid]</text>
</g>
<!-- public.story_messages&#45;&gt;public.story_play_sessions -->
<g id="edge2" class="edge">
<title>public.story_messages:play_session_id&#45;&gt;public.story_play_sessions:id</title>
<path fill="none" stroke="black" d="M370.54,-710.22C432.07,-682.39 442.84,-397.4 376.18,-397.4"/>
<polygon fill="black" stroke="black" points="370.76,-710.17 360.03,-707.93 365.55,-711.32 361.33,-712.26 361.33,-712.26 361.33,-712.26 365.55,-711.32 361.97,-716.72 370.76,-710.17"/>
<text text-anchor="start" x="367.67" y="-722.4" font-family="Arial" font-size="10.00">FOREIGN KEY (play_session_id) REFERENCES story_play_sessions(id) ON DELETE CASCADE</text>
</g>
<!-- public.story_choices -->
<g id="node2" class="node">
<title>public.story_choices</title>
<polygon fill="#efefef" stroke="none" points="65.71,-1166 65.71,-1201.6 352.67,-1201.6 352.67,-1166 65.71,-1166"/>
<polygon fill="none" stroke="black" points="65.71,-1166 65.71,-1201.6 352.67,-1201.6 352.67,-1166 65.71,-1166"/>
<text text-anchor="start" x="72.71" y="-1179.4" font-family="Arial Bold" font-size="18.00">public.story_choices</text>
<text text-anchor="start" x="221.18" y="-1179.4" font-family="Arial" font-size="14.00">    </text>
<text text-anchor="start" x="252.3" y="-1179.4" font-family="Arial" font-size="14.00" fill="#666666">[BASE TABLE]</text>
<polygon fill="none" stroke="black" points="65.71,-1135.2 65.71,-1166 352.67,-1166 352.67,-1135.2 65.71,-1135.2"/>
<text text-anchor="start" x="72.71" y="-1147.4" font-family="Arial" font-size="14.00">id </text>
<text text-anchor="start" x="87.5" y="-1147.4" font-family="Arial" font-size="14.00" fill="#666666">[bigint]</text>
<polygon fill="none" stroke="black" points="65.71,-1104.4 65.71,-1135.2 352.67,-1135.2 352.67,-1104.4 65.71,-1104.4"/>
<text text-anchor="start" x="72.71" y="-1116.6" font-family="Arial" font-size="14.00">play_session_id </text>
<text text-anchor="start" x="176.22" y="-1116.6" font-family="Arial" font-size="14.00" fill="#666666">[bigint]</text>
<polygon fill="none" stroke="black" points="65.71,-1073.6 65.71,-1104.4 352.67,-1104.4 352.67,-1073.6 65.71,-1073.6"/>
<text text-anchor="start" x="72.71" y="-1085.8" font-family="Arial" font-size="14.00">message_id </text>
<text text-anchor="start" x="152.09" y="-1085.8" font-family="Arial" font-size="14.00" fill="#666666">[bigint]</text>
<polygon fill="none" stroke="black" points="65.71,-1042.8 65.71,-1073.6 352.67,-1073.6 352.67,-1042.8 65.71,-1042.8"/>
<text text-anchor="start" x="72.71" y="-1055" font-family="Arial" font-size="14.00">choice_text </text>
<text text-anchor="start" x="147.42" y="-1055" font-family="Arial" font-size="14.00" fill="#666666">[text]</text>
<polygon fill="none" stroke="black" points="65.71,-1012 65.71,-1042.8 352.67,-1042.8 352.67,-1012 65.71,-1012"/>
<text text-anchor="start" x="72.71" y="-1024.2" font-family="Arial" font-size="14.00">choice_order </text>
<text text-anchor="start" x="157.54" y="-1024.2" font-family="Arial" font-size="14.00" fill="#666666">[smallint]</text>
<polygon fill="none" stroke="black" points="65.71,-981.2 65.71,-1012 352.67,-1012 352.67,-981.2 65.71,-981.2"/>
<text text-anchor="start" x="72.71" y="-993.4" font-family="Arial" font-size="14.00">is_selected </text>
<text text-anchor="start" x="146.64" y="-993.4" font-family="Arial" font-size="14.00" fill="#666666">[boolean]</text>
<polygon fill="none" stroke="black" points="65.71,-950.4 65.71,-981.2 352.67,-981.2 352.67,-950.4 65.71,-950.4"/>
<text text-anchor="start" x="72.71" y="-962.6" font-family="Arial" font-size="14.00">selected_at </text>
<text text-anchor="start" x="148.21" y="-962.6" font-family="Arial" font-size="14.00" fill="#666666">[timestamp with time zone]</text>
<polygon fill="none" stroke="black" points="65.71,-919.6 65.71,-950.4 352.67,-950.4 352.67,-919.6 65.71,-919.6"/>
<text text-anchor="start" x="72.71" y="-931.8" font-family="Arial" font-size="14.00">created_at </text>
<text text-anchor="start" x="142.76" y="-931.8" font-family="Arial" font-size="14.00" fill="#666666">[timestamp with time zone]</text>
</g>
<!-- public.story_choices&#45;&gt;public.story_messages -->
<g id="edge1" class="edge">
<title>public.story_choices:message_id&#45;&gt;public.story_messages:id</title>
<path fill="none" stroke="black" d="M363.6,-1086.97C430.99,-1058.63 434.08,-743.2 360.67,-743.2"/>
<polygon fill="black" stroke="black" points="363.79,-1086.93 353.09,-1084.52 358.57,-1088 354.32,-1088.87 354.32,-1088.87 354.32,-1088.87 358.57,-1088 354.9,-1093.34 363.79,-1086.93"/>
<text text-anchor="start" x="360.67" y="-1099" font-family="Arial" font-size="10.00">FOREIGN KEY (message_id) REFERENCES story_messages(id) ON DELETE CASCADE</text>
</g>
</g>
</svg>
